<mxfile host="app.diagrams.net" modified="2024-05-06T22:54:26.021Z" agent="Mozilla/5.0 (X11; Ubuntu; Linux x86_64; rv:124.0) Gecko/20100101 Firefox/124.0" etag="4dVQaZzGJwaVSLZg1M3l" version="24.3.0" type="google" pages="8">
  <diagram name="Consultas" id="6wJ5kDD1ik7S2eSl89qu">
    <mxGraphModel grid="1" page="1" gridSize="10" guides="1" tooltips="1" connect="1" arrows="1" fold="1" pageScale="1" pageWidth="827" pageHeight="1169" math="0" shadow="0">
      <root>
        <mxCell id="0" />
        <mxCell id="1" parent="0" />
        <mxCell id="SR8pxRbGqpIO7IFfhyj4-3" style="edgeStyle=orthogonalEdgeStyle;rounded=0;orthogonalLoop=1;jettySize=auto;html=1;exitX=0.25;exitY=1;exitDx=0;exitDy=0;entryX=0.5;entryY=0;entryDx=0;entryDy=0;fontSize=12;" edge="1" parent="1" source="SR8pxRbGqpIO7IFfhyj4-1" target="SR8pxRbGqpIO7IFfhyj4-8">
          <mxGeometry relative="1" as="geometry">
            <mxPoint x="150" y="320" as="targetPoint" />
          </mxGeometry>
        </mxCell>
        <mxCell id="SR8pxRbGqpIO7IFfhyj4-7" value="Si" style="edgeLabel;html=1;align=center;verticalAlign=middle;resizable=0;points=[];fontSize=12;" connectable="0" vertex="1" parent="SR8pxRbGqpIO7IFfhyj4-3">
          <mxGeometry x="-0.2071" y="-1" relative="1" as="geometry">
            <mxPoint x="1" as="offset" />
          </mxGeometry>
        </mxCell>
        <mxCell id="pMFyPxmMl0asgmyPEjsr-2" style="edgeStyle=orthogonalEdgeStyle;rounded=0;orthogonalLoop=1;jettySize=auto;html=1;exitX=0.75;exitY=1;exitDx=0;exitDy=0;entryX=0.5;entryY=0;entryDx=0;entryDy=0;" edge="1" parent="1" source="SR8pxRbGqpIO7IFfhyj4-1" target="pMFyPxmMl0asgmyPEjsr-1">
          <mxGeometry relative="1" as="geometry" />
        </mxCell>
        <mxCell id="pMFyPxmMl0asgmyPEjsr-4" value="No" style="edgeLabel;html=1;align=center;verticalAlign=middle;resizable=0;points=[];" connectable="0" vertex="1" parent="pMFyPxmMl0asgmyPEjsr-2">
          <mxGeometry x="-0.7406" relative="1" as="geometry">
            <mxPoint y="2" as="offset" />
          </mxGeometry>
        </mxCell>
        <mxCell id="SR8pxRbGqpIO7IFfhyj4-1" value="&lt;span style=&quot;text-align: start; font-size: 12px;&quot;&gt;&lt;font style=&quot;font-size: 12px;&quot; face=&quot;Helvetica&quot;&gt;¿&lt;/font&gt;&lt;/span&gt;&lt;font style=&quot;font-size: 12px;&quot; face=&quot;Helvetica&quot;&gt;Soy el primero?&lt;/font&gt;" style="rounded=1;whiteSpace=wrap;html=1;fontSize=12;" vertex="1" parent="1">
          <mxGeometry x="90" y="280" width="150" height="30" as="geometry" />
        </mxCell>
        <mxCell id="SR8pxRbGqpIO7IFfhyj4-18" style="edgeStyle=orthogonalEdgeStyle;rounded=0;orthogonalLoop=1;jettySize=auto;html=1;entryX=0.5;entryY=0;entryDx=0;entryDy=0;fontSize=12;" edge="1" parent="1" source="SR8pxRbGqpIO7IFfhyj4-6" target="SR8pxRbGqpIO7IFfhyj4-17">
          <mxGeometry relative="1" as="geometry" />
        </mxCell>
        <mxCell id="SR8pxRbGqpIO7IFfhyj4-6" value="SC" style="shape=hexagon;perimeter=hexagonPerimeter2;whiteSpace=wrap;html=1;fixedSize=1;fontSize=12;" vertex="1" parent="1">
          <mxGeometry x="90" y="410" width="150" height="30" as="geometry" />
        </mxCell>
        <mxCell id="SR8pxRbGqpIO7IFfhyj4-16" style="edgeStyle=orthogonalEdgeStyle;rounded=0;orthogonalLoop=1;jettySize=auto;html=1;exitX=0.5;exitY=1;exitDx=0;exitDy=0;entryX=0.5;entryY=0;entryDx=0;entryDy=0;fontSize=12;" edge="1" parent="1" source="SR8pxRbGqpIO7IFfhyj4-8" target="SR8pxRbGqpIO7IFfhyj4-6">
          <mxGeometry relative="1" as="geometry" />
        </mxCell>
        <mxCell id="SR8pxRbGqpIO7IFfhyj4-8" value="sem_post(OtrasConsultas)" style="rounded=1;whiteSpace=wrap;html=1;fontSize=8;" vertex="1" parent="1">
          <mxGeometry x="80" y="340" width="100" height="30" as="geometry" />
        </mxCell>
        <mxCell id="SR8pxRbGqpIO7IFfhyj4-12" style="edgeStyle=orthogonalEdgeStyle;rounded=0;orthogonalLoop=1;jettySize=auto;html=1;exitX=0.75;exitY=1;exitDx=0;exitDy=0;entryX=0.5;entryY=0;entryDx=0;entryDy=0;fontSize=12;" edge="1" parent="1" source="SR8pxRbGqpIO7IFfhyj4-9" target="SR8pxRbGqpIO7IFfhyj4-14">
          <mxGeometry relative="1" as="geometry">
            <mxPoint x="287.57142857142867" y="240" as="targetPoint" />
          </mxGeometry>
        </mxCell>
        <mxCell id="SR8pxRbGqpIO7IFfhyj4-13" value="Si" style="edgeLabel;html=1;align=center;verticalAlign=middle;resizable=0;points=[];fontSize=12;" connectable="0" vertex="1" parent="SR8pxRbGqpIO7IFfhyj4-12">
          <mxGeometry x="-0.2343" y="1" relative="1" as="geometry">
            <mxPoint x="-1" y="3" as="offset" />
          </mxGeometry>
        </mxCell>
        <mxCell id="pMFyPxmMl0asgmyPEjsr-7" style="edgeStyle=orthogonalEdgeStyle;rounded=0;orthogonalLoop=1;jettySize=auto;html=1;exitX=0.25;exitY=1;exitDx=0;exitDy=0;entryX=0.5;entryY=0;entryDx=0;entryDy=0;" edge="1" parent="1" source="SR8pxRbGqpIO7IFfhyj4-9" target="pMFyPxmMl0asgmyPEjsr-5">
          <mxGeometry relative="1" as="geometry" />
        </mxCell>
        <mxCell id="pMFyPxmMl0asgmyPEjsr-8" value="No" style="edgeLabel;html=1;align=center;verticalAlign=middle;resizable=0;points=[];" connectable="0" vertex="1" parent="pMFyPxmMl0asgmyPEjsr-7">
          <mxGeometry x="0.2716" y="-1" relative="1" as="geometry">
            <mxPoint x="1" as="offset" />
          </mxGeometry>
        </mxCell>
        <mxCell id="SR8pxRbGqpIO7IFfhyj4-9" value="&lt;div style=&quot;text-align: start; font-size: 12px;&quot;&gt;&lt;span style=&quot;font-size: 12px; background-color: initial;&quot;&gt;¿&lt;/span&gt;&lt;span style=&quot;background-color: initial; font-size: 12px;&quot;&gt;Hay otras consultas?&lt;/span&gt;&lt;/div&gt;" style="rounded=1;whiteSpace=wrap;html=1;fontSize=12;" vertex="1" parent="1">
          <mxGeometry x="130" y="180" width="220" height="30" as="geometry" />
        </mxCell>
        <mxCell id="SR8pxRbGqpIO7IFfhyj4-15" style="edgeStyle=orthogonalEdgeStyle;rounded=0;orthogonalLoop=1;jettySize=auto;html=1;exitX=0.5;exitY=1;exitDx=0;exitDy=0;entryX=0.5;entryY=0;entryDx=0;entryDy=0;fontSize=12;" edge="1" parent="1" source="SR8pxRbGqpIO7IFfhyj4-14" target="SR8pxRbGqpIO7IFfhyj4-9">
          <mxGeometry relative="1" as="geometry">
            <Array as="points">
              <mxPoint x="295" y="290" />
              <mxPoint x="360" y="290" />
              <mxPoint x="360" y="160" />
              <mxPoint x="240" y="160" />
            </Array>
          </mxGeometry>
        </mxCell>
        <mxCell id="SR8pxRbGqpIO7IFfhyj4-14" value="Espero" style="rounded=1;whiteSpace=wrap;html=1;fontSize=12;" vertex="1" parent="1">
          <mxGeometry x="260" y="240" width="70" height="30" as="geometry" />
        </mxCell>
        <mxCell id="SR8pxRbGqpIO7IFfhyj4-19" style="edgeStyle=orthogonalEdgeStyle;rounded=0;orthogonalLoop=1;jettySize=auto;html=1;exitX=0.75;exitY=1;exitDx=0;exitDy=0;entryX=0.5;entryY=0;entryDx=0;entryDy=0;fontSize=12;" edge="1" parent="1" source="SR8pxRbGqpIO7IFfhyj4-17" target="SR8pxRbGqpIO7IFfhyj4-9">
          <mxGeometry relative="1" as="geometry">
            <Array as="points">
              <mxPoint x="190" y="510" />
              <mxPoint x="360" y="510" />
              <mxPoint x="360" y="160" />
              <mxPoint x="240" y="160" />
            </Array>
          </mxGeometry>
        </mxCell>
        <mxCell id="SR8pxRbGqpIO7IFfhyj4-20" value="No" style="edgeLabel;html=1;align=center;verticalAlign=middle;resizable=0;points=[];fontSize=12;" connectable="0" vertex="1" parent="SR8pxRbGqpIO7IFfhyj4-19">
          <mxGeometry x="-0.9659" relative="1" as="geometry">
            <mxPoint x="-1" y="10" as="offset" />
          </mxGeometry>
        </mxCell>
        <mxCell id="SR8pxRbGqpIO7IFfhyj4-22" style="edgeStyle=orthogonalEdgeStyle;rounded=0;orthogonalLoop=1;jettySize=auto;html=1;exitX=0.25;exitY=1;exitDx=0;exitDy=0;entryX=0.5;entryY=0;entryDx=0;entryDy=0;fontSize=12;" edge="1" parent="1" source="SR8pxRbGqpIO7IFfhyj4-17" target="SR8pxRbGqpIO7IFfhyj4-21">
          <mxGeometry relative="1" as="geometry" />
        </mxCell>
        <mxCell id="SR8pxRbGqpIO7IFfhyj4-23" value="Si" style="edgeLabel;html=1;align=center;verticalAlign=middle;resizable=0;points=[];fontSize=12;" connectable="0" vertex="1" parent="SR8pxRbGqpIO7IFfhyj4-22">
          <mxGeometry x="-0.5502" y="-1" relative="1" as="geometry">
            <mxPoint as="offset" />
          </mxGeometry>
        </mxCell>
        <mxCell id="SR8pxRbGqpIO7IFfhyj4-17" value="&lt;span style=&quot;font-size: 12px; text-align: start;&quot;&gt;&lt;font face=&quot;Helvetica&quot; style=&quot;font-size: 12px;&quot;&gt;¿&lt;/font&gt;&lt;/span&gt;&lt;font face=&quot;Helvetica&quot; style=&quot;font-size: 12px;&quot;&gt;Soy el último?&lt;/font&gt;" style="rounded=1;whiteSpace=wrap;html=1;fontSize=12;" vertex="1" parent="1">
          <mxGeometry x="90" y="460" width="150" height="30" as="geometry" />
        </mxCell>
        <mxCell id="SR8pxRbGqpIO7IFfhyj4-24" style="edgeStyle=orthogonalEdgeStyle;rounded=0;orthogonalLoop=1;jettySize=auto;html=1;exitX=0.5;exitY=1;exitDx=0;exitDy=0;entryX=0.5;entryY=0;entryDx=0;entryDy=0;fontSize=12;" edge="1" parent="1" source="SR8pxRbGqpIO7IFfhyj4-21" target="SR8pxRbGqpIO7IFfhyj4-9">
          <mxGeometry relative="1" as="geometry">
            <Array as="points">
              <mxPoint x="138" y="570" />
              <mxPoint x="360" y="570" />
              <mxPoint x="360" y="160" />
              <mxPoint x="240" y="160" />
            </Array>
          </mxGeometry>
        </mxCell>
        <mxCell id="SR8pxRbGqpIO7IFfhyj4-21" value="HayConsultas == 0" style="rounded=1;whiteSpace=wrap;html=1;fontSize=9;" vertex="1" parent="1">
          <mxGeometry x="90" y="530" width="95" height="20" as="geometry" />
        </mxCell>
        <mxCell id="pMFyPxmMl0asgmyPEjsr-3" style="edgeStyle=orthogonalEdgeStyle;rounded=0;orthogonalLoop=1;jettySize=auto;html=1;exitX=0.5;exitY=1;exitDx=0;exitDy=0;entryX=0.5;entryY=0;entryDx=0;entryDy=0;" edge="1" parent="1" source="pMFyPxmMl0asgmyPEjsr-1" target="SR8pxRbGqpIO7IFfhyj4-6">
          <mxGeometry relative="1" as="geometry" />
        </mxCell>
        <mxCell id="pMFyPxmMl0asgmyPEjsr-1" value="sem_wait(OtrasConsultas)" style="rounded=1;whiteSpace=wrap;html=1;fontSize=8;" vertex="1" parent="1">
          <mxGeometry x="185" y="340" width="100" height="30" as="geometry" />
        </mxCell>
        <mxCell id="pMFyPxmMl0asgmyPEjsr-6" style="edgeStyle=orthogonalEdgeStyle;rounded=0;orthogonalLoop=1;jettySize=auto;html=1;exitX=0.5;exitY=1;exitDx=0;exitDy=0;entryX=0.5;entryY=0;entryDx=0;entryDy=0;" edge="1" parent="1" source="pMFyPxmMl0asgmyPEjsr-5" target="SR8pxRbGqpIO7IFfhyj4-1">
          <mxGeometry relative="1" as="geometry" />
        </mxCell>
        <mxCell id="pMFyPxmMl0asgmyPEjsr-5" value="HayConsultas == 1" style="rounded=1;whiteSpace=wrap;html=1;fontSize=9;" vertex="1" parent="1">
          <mxGeometry x="117.5" y="240" width="95" height="20" as="geometry" />
        </mxCell>
      </root>
    </mxGraphModel>
  </diagram>
  <diagram id="ok7rQOx0p7lSnso95Ec8" name="R-P-A-Ad">
    <mxGraphModel grid="1" page="1" gridSize="10" guides="1" tooltips="1" connect="1" arrows="1" fold="1" pageScale="1" pageWidth="827" pageHeight="1169" math="0" shadow="0">
      <root>
        <mxCell id="0" />
        <mxCell id="1" parent="0" />
        <mxCell id="1-XhJtYh_s4H-saphryP-10" style="edgeStyle=orthogonalEdgeStyle;rounded=0;orthogonalLoop=1;jettySize=auto;html=1;exitX=0.75;exitY=1;exitDx=0;exitDy=0;entryX=0.5;entryY=0;entryDx=0;entryDy=0;fontSize=12;" edge="1" parent="1" source="1-XhJtYh_s4H-saphryP-14" target="1-XhJtYh_s4H-saphryP-16">
          <mxGeometry relative="1" as="geometry">
            <mxPoint x="287.57142857142867" y="240" as="targetPoint" />
          </mxGeometry>
        </mxCell>
        <mxCell id="1-XhJtYh_s4H-saphryP-11" value="Si" style="edgeLabel;html=1;align=center;verticalAlign=middle;resizable=0;points=[];fontSize=12;" connectable="0" vertex="1" parent="1-XhJtYh_s4H-saphryP-10">
          <mxGeometry x="-0.2343" y="1" relative="1" as="geometry">
            <mxPoint x="-1" y="3" as="offset" />
          </mxGeometry>
        </mxCell>
        <mxCell id="1-XhJtYh_s4H-saphryP-12" style="edgeStyle=orthogonalEdgeStyle;rounded=0;orthogonalLoop=1;jettySize=auto;html=1;exitX=0.25;exitY=1;exitDx=0;exitDy=0;entryX=0.5;entryY=0;entryDx=0;entryDy=0;" edge="1" parent="1" source="1-XhJtYh_s4H-saphryP-14" target="1-XhJtYh_s4H-saphryP-28">
          <mxGeometry relative="1" as="geometry">
            <mxPoint x="165" y="240" as="targetPoint" />
          </mxGeometry>
        </mxCell>
        <mxCell id="1-XhJtYh_s4H-saphryP-13" value="No" style="edgeLabel;html=1;align=center;verticalAlign=middle;resizable=0;points=[];" connectable="0" vertex="1" parent="1-XhJtYh_s4H-saphryP-12">
          <mxGeometry x="0.2716" y="-1" relative="1" as="geometry">
            <mxPoint x="1" y="-6" as="offset" />
          </mxGeometry>
        </mxCell>
        <mxCell id="1-XhJtYh_s4H-saphryP-14" value="&lt;div style=&quot;text-align: start; font-size: 12px;&quot;&gt;&lt;span style=&quot;font-size: 12px; background-color: initial;&quot;&gt;¿&lt;/span&gt;&lt;span style=&quot;background-color: initial; font-size: 12px;&quot;&gt;Hay otras consultas?&lt;/span&gt;&lt;/div&gt;" style="rounded=1;whiteSpace=wrap;html=1;fontSize=12;" vertex="1" parent="1">
          <mxGeometry x="130" y="180" width="220" height="30" as="geometry" />
        </mxCell>
        <mxCell id="1-XhJtYh_s4H-saphryP-15" style="edgeStyle=orthogonalEdgeStyle;rounded=0;orthogonalLoop=1;jettySize=auto;html=1;exitX=0.5;exitY=1;exitDx=0;exitDy=0;entryX=0.5;entryY=0;entryDx=0;entryDy=0;fontSize=12;" edge="1" parent="1" source="1-XhJtYh_s4H-saphryP-16" target="1-XhJtYh_s4H-saphryP-14">
          <mxGeometry relative="1" as="geometry">
            <Array as="points">
              <mxPoint x="295" y="300" />
              <mxPoint x="360" y="300" />
              <mxPoint x="360" y="160" />
              <mxPoint x="240" y="160" />
            </Array>
          </mxGeometry>
        </mxCell>
        <mxCell id="1-XhJtYh_s4H-saphryP-16" value="Espero" style="rounded=1;whiteSpace=wrap;html=1;fontSize=12;" vertex="1" parent="1">
          <mxGeometry x="260" y="250" width="70" height="30" as="geometry" />
        </mxCell>
        <mxCell id="1-XhJtYh_s4H-saphryP-30" style="edgeStyle=orthogonalEdgeStyle;rounded=0;orthogonalLoop=1;jettySize=auto;html=1;exitX=0.5;exitY=1;exitDx=0;exitDy=0;entryX=0.5;entryY=0;entryDx=0;entryDy=0;" edge="1" parent="1" source="1-XhJtYh_s4H-saphryP-28" target="1-XhJtYh_s4H-saphryP-29">
          <mxGeometry relative="1" as="geometry" />
        </mxCell>
        <mxCell id="1-XhJtYh_s4H-saphryP-28" value="Pido acceso a SC a otros nodos" style="rounded=1;whiteSpace=wrap;html=1;fontSize=12;" vertex="1" parent="1">
          <mxGeometry x="120" y="250" width="130" height="30" as="geometry" />
        </mxCell>
        <mxCell id="1-XhJtYh_s4H-saphryP-33" style="edgeStyle=orthogonalEdgeStyle;rounded=0;orthogonalLoop=1;jettySize=auto;html=1;exitX=0.5;exitY=1;exitDx=0;exitDy=0;entryX=0.5;entryY=0;entryDx=0;entryDy=0;" edge="1" parent="1" source="1-XhJtYh_s4H-saphryP-29" target="i3bVZ8u1pMo601eOSTUd-1">
          <mxGeometry relative="1" as="geometry">
            <mxPoint x="185.28571428571422" y="380" as="targetPoint" />
          </mxGeometry>
        </mxCell>
        <mxCell id="i3bVZ8u1pMo601eOSTUd-2" value="Si" style="edgeLabel;html=1;align=center;verticalAlign=middle;resizable=0;points=[];" connectable="0" vertex="1" parent="1-XhJtYh_s4H-saphryP-33">
          <mxGeometry x="-0.1203" y="-1" relative="1" as="geometry">
            <mxPoint x="1" y="-2" as="offset" />
          </mxGeometry>
        </mxCell>
        <mxCell id="1-XhJtYh_s4H-saphryP-29" value="&lt;span style=&quot;text-align: start; background-color: initial;&quot;&gt;¿&lt;/span&gt;&lt;span style=&quot;text-align: start; background-color: initial;&quot;&gt;Tengo todas las confirmaciones?&lt;/span&gt;" style="rounded=1;whiteSpace=wrap;html=1;fontSize=12;" vertex="1" parent="1">
          <mxGeometry x="120" y="320" width="130" height="30" as="geometry" />
        </mxCell>
        <mxCell id="1-XhJtYh_s4H-saphryP-31" style="edgeStyle=orthogonalEdgeStyle;rounded=0;orthogonalLoop=1;jettySize=auto;html=1;exitX=0.25;exitY=1;exitDx=0;exitDy=0;entryX=0.25;entryY=0;entryDx=0;entryDy=0;" edge="1" parent="1" source="1-XhJtYh_s4H-saphryP-29" target="1-XhJtYh_s4H-saphryP-29">
          <mxGeometry relative="1" as="geometry">
            <Array as="points">
              <mxPoint x="152" y="370" />
              <mxPoint x="100" y="370" />
              <mxPoint x="100" y="300" />
              <mxPoint x="152" y="300" />
            </Array>
          </mxGeometry>
        </mxCell>
        <mxCell id="1-XhJtYh_s4H-saphryP-32" value="No" style="edgeLabel;html=1;align=center;verticalAlign=middle;resizable=0;points=[];" connectable="0" vertex="1" parent="1-XhJtYh_s4H-saphryP-31">
          <mxGeometry x="-0.8663" y="-2" relative="1" as="geometry">
            <mxPoint as="offset" />
          </mxGeometry>
        </mxCell>
        <mxCell id="i3bVZ8u1pMo601eOSTUd-3" style="edgeStyle=orthogonalEdgeStyle;rounded=0;orthogonalLoop=1;jettySize=auto;html=1;entryX=0.5;entryY=0;entryDx=0;entryDy=0;" edge="1" parent="1" source="i3bVZ8u1pMo601eOSTUd-1" target="1-XhJtYh_s4H-saphryP-14">
          <mxGeometry relative="1" as="geometry">
            <Array as="points">
              <mxPoint x="185" y="440" />
              <mxPoint x="360" y="440" />
              <mxPoint x="360" y="160" />
              <mxPoint x="240" y="160" />
            </Array>
          </mxGeometry>
        </mxCell>
        <mxCell id="i3bVZ8u1pMo601eOSTUd-1" value="SC" style="shape=hexagon;perimeter=hexagonPerimeter2;whiteSpace=wrap;html=1;fixedSize=1;fontSize=12;" vertex="1" parent="1">
          <mxGeometry x="120" y="390" width="130" height="30" as="geometry" />
        </mxCell>
      </root>
    </mxGraphModel>
  </diagram>
  <diagram id="88UPDjRPBNbjNdIyAqHh" name="Receiver">
    <mxGraphModel grid="1" page="1" gridSize="10" guides="1" tooltips="1" connect="1" arrows="1" fold="1" pageScale="1" pageWidth="827" pageHeight="1169" math="0" shadow="0">
      <root>
        <mxCell id="0" />
        <mxCell id="1" parent="0" />
        <mxCell id="93WX8K2hh2bFkFXytc1J-12" style="edgeStyle=orthogonalEdgeStyle;rounded=0;orthogonalLoop=1;jettySize=auto;html=1;exitX=0.25;exitY=1;exitDx=0;exitDy=0;entryX=0.5;entryY=0;entryDx=0;entryDy=0;" edge="1" parent="1" source="E-qOZFo_RbCoVeA5lDpM-1" target="93WX8K2hh2bFkFXytc1J-11">
          <mxGeometry relative="1" as="geometry" />
        </mxCell>
        <mxCell id="93WX8K2hh2bFkFXytc1J-15" value="Si" style="edgeLabel;html=1;align=center;verticalAlign=middle;resizable=0;points=[];" connectable="0" vertex="1" parent="93WX8K2hh2bFkFXytc1J-12">
          <mxGeometry x="-0.1966" y="-2" relative="1" as="geometry">
            <mxPoint x="2" y="-4" as="offset" />
          </mxGeometry>
        </mxCell>
        <mxCell id="E-qOZFo_RbCoVeA5lDpM-1" value="&lt;span style=&quot;text-align: start; background-color: initial;&quot;&gt;¿Mensaje recibido&lt;/span&gt;&lt;span style=&quot;text-align: start; background-color: initial;&quot;&gt;?&lt;/span&gt;" style="rounded=1;whiteSpace=wrap;html=1;" vertex="1" parent="1">
          <mxGeometry x="190" y="140" width="200" height="40" as="geometry" />
        </mxCell>
        <mxCell id="93WX8K2hh2bFkFXytc1J-29" style="edgeStyle=orthogonalEdgeStyle;rounded=0;orthogonalLoop=1;jettySize=auto;html=1;exitX=0.25;exitY=1;exitDx=0;exitDy=0;entryX=0.5;entryY=0;entryDx=0;entryDy=0;" edge="1" parent="1" source="93WX8K2hh2bFkFXytc1J-8" target="93WX8K2hh2bFkFXytc1J-28">
          <mxGeometry relative="1" as="geometry" />
        </mxCell>
        <mxCell id="93WX8K2hh2bFkFXytc1J-30" value="Si" style="edgeLabel;html=1;align=center;verticalAlign=middle;resizable=0;points=[];" connectable="0" vertex="1" parent="93WX8K2hh2bFkFXytc1J-29">
          <mxGeometry x="-0.246" relative="1" as="geometry">
            <mxPoint as="offset" />
          </mxGeometry>
        </mxCell>
        <mxCell id="93WX8K2hh2bFkFXytc1J-8" value="&lt;span style=&quot;text-align: start; background-color: initial;&quot;&gt;¿Proceso Quiere&lt;/span&gt;&lt;span style=&quot;text-align: start; background-color: initial;&quot;&gt;?&lt;/span&gt;" style="rounded=1;whiteSpace=wrap;html=1;" vertex="1" parent="1">
          <mxGeometry x="-50" y="140" width="200" height="40" as="geometry" />
        </mxCell>
        <mxCell id="93WX8K2hh2bFkFXytc1J-9" style="edgeStyle=orthogonalEdgeStyle;rounded=0;orthogonalLoop=1;jettySize=auto;html=1;exitX=0.75;exitY=1;exitDx=0;exitDy=0;entryX=0.5;entryY=0;entryDx=0;entryDy=0;" edge="1" parent="1" source="E-qOZFo_RbCoVeA5lDpM-1" target="E-qOZFo_RbCoVeA5lDpM-1">
          <mxGeometry relative="1" as="geometry">
            <Array as="points">
              <mxPoint x="340" y="220" />
              <mxPoint x="400" y="220" />
              <mxPoint x="400" y="100" />
              <mxPoint x="290" y="100" />
            </Array>
          </mxGeometry>
        </mxCell>
        <mxCell id="93WX8K2hh2bFkFXytc1J-10" value="No" style="edgeLabel;html=1;align=center;verticalAlign=middle;resizable=0;points=[];" connectable="0" vertex="1" parent="93WX8K2hh2bFkFXytc1J-9">
          <mxGeometry x="-0.9057" y="-2" relative="1" as="geometry">
            <mxPoint as="offset" />
          </mxGeometry>
        </mxCell>
        <mxCell id="93WX8K2hh2bFkFXytc1J-20" style="edgeStyle=orthogonalEdgeStyle;rounded=0;orthogonalLoop=1;jettySize=auto;html=1;exitX=0.75;exitY=1;exitDx=0;exitDy=0;" edge="1" parent="1" source="93WX8K2hh2bFkFXytc1J-11">
          <mxGeometry relative="1" as="geometry">
            <mxPoint x="240" y="240" as="targetPoint" />
            <Array as="points">
              <mxPoint x="270" y="320" />
              <mxPoint x="320" y="320" />
              <mxPoint x="320" y="220" />
              <mxPoint x="240" y="220" />
            </Array>
          </mxGeometry>
        </mxCell>
        <mxCell id="93WX8K2hh2bFkFXytc1J-21" value="Si" style="edgeLabel;html=1;align=center;verticalAlign=middle;resizable=0;points=[];" connectable="0" vertex="1" parent="93WX8K2hh2bFkFXytc1J-20">
          <mxGeometry x="-0.8385" relative="1" as="geometry">
            <mxPoint as="offset" />
          </mxGeometry>
        </mxCell>
        <mxCell id="93WX8K2hh2bFkFXytc1J-23" style="edgeStyle=orthogonalEdgeStyle;rounded=0;orthogonalLoop=1;jettySize=auto;html=1;exitX=0.25;exitY=1;exitDx=0;exitDy=0;entryX=0.5;entryY=0;entryDx=0;entryDy=0;" edge="1" parent="1" source="93WX8K2hh2bFkFXytc1J-11" target="93WX8K2hh2bFkFXytc1J-22">
          <mxGeometry relative="1" as="geometry" />
        </mxCell>
        <mxCell id="93WX8K2hh2bFkFXytc1J-24" value="No" style="edgeLabel;html=1;align=center;verticalAlign=middle;resizable=0;points=[];" connectable="0" vertex="1" parent="93WX8K2hh2bFkFXytc1J-23">
          <mxGeometry x="-0.637" y="1" relative="1" as="geometry">
            <mxPoint as="offset" />
          </mxGeometry>
        </mxCell>
        <mxCell id="93WX8K2hh2bFkFXytc1J-11" value="&lt;span style=&quot;text-align: start; background-color: initial;&quot;&gt;¿Estamos en SC&lt;/span&gt;&lt;span style=&quot;text-align: start; background-color: initial;&quot;&gt;?&lt;/span&gt;" style="rounded=1;whiteSpace=wrap;html=1;" vertex="1" parent="1">
          <mxGeometry x="180" y="240" width="120" height="40" as="geometry" />
        </mxCell>
        <mxCell id="93WX8K2hh2bFkFXytc1J-25" style="edgeStyle=orthogonalEdgeStyle;rounded=0;orthogonalLoop=1;jettySize=auto;html=1;exitX=0.5;exitY=1;exitDx=0;exitDy=0;entryX=0.5;entryY=0;entryDx=0;entryDy=0;" edge="1" parent="1" source="93WX8K2hh2bFkFXytc1J-22" target="E-qOZFo_RbCoVeA5lDpM-1">
          <mxGeometry relative="1" as="geometry">
            <mxPoint x="290" y="140" as="targetPoint" />
            <Array as="points">
              <mxPoint x="240" y="420" />
              <mxPoint x="400" y="420" />
              <mxPoint x="400" y="100" />
              <mxPoint x="290" y="100" />
            </Array>
          </mxGeometry>
        </mxCell>
        <mxCell id="93WX8K2hh2bFkFXytc1J-22" value="&lt;div style=&quot;text-align: start;&quot;&gt;Respondemos ticket&lt;/div&gt;" style="rounded=1;whiteSpace=wrap;html=1;" vertex="1" parent="1">
          <mxGeometry x="180" y="360" width="120" height="40" as="geometry" />
        </mxCell>
        <mxCell id="93WX8K2hh2bFkFXytc1J-26" style="edgeStyle=orthogonalEdgeStyle;rounded=0;orthogonalLoop=1;jettySize=auto;html=1;exitX=0.75;exitY=1;exitDx=0;exitDy=0;entryX=0.5;entryY=0;entryDx=0;entryDy=0;" edge="1" parent="1" source="93WX8K2hh2bFkFXytc1J-8" target="93WX8K2hh2bFkFXytc1J-8">
          <mxGeometry relative="1" as="geometry">
            <Array as="points">
              <mxPoint x="100" y="220" />
              <mxPoint x="160" y="220" />
              <mxPoint x="160" y="100" />
              <mxPoint x="50" y="100" />
            </Array>
          </mxGeometry>
        </mxCell>
        <mxCell id="93WX8K2hh2bFkFXytc1J-27" value="No" style="edgeLabel;html=1;align=center;verticalAlign=middle;resizable=0;points=[];" connectable="0" vertex="1" parent="93WX8K2hh2bFkFXytc1J-26">
          <mxGeometry x="-0.8983" y="-2" relative="1" as="geometry">
            <mxPoint as="offset" />
          </mxGeometry>
        </mxCell>
        <mxCell id="93WX8K2hh2bFkFXytc1J-31" style="edgeStyle=orthogonalEdgeStyle;rounded=0;orthogonalLoop=1;jettySize=auto;html=1;exitX=0.75;exitY=1;exitDx=0;exitDy=0;" edge="1" parent="1" source="93WX8K2hh2bFkFXytc1J-28">
          <mxGeometry relative="1" as="geometry">
            <mxPoint y="240" as="targetPoint" />
            <Array as="points">
              <mxPoint x="30" y="300" />
              <mxPoint x="80" y="300" />
              <mxPoint x="80" y="220" />
              <mxPoint y="220" />
            </Array>
          </mxGeometry>
        </mxCell>
        <mxCell id="93WX8K2hh2bFkFXytc1J-32" value="Si" style="edgeLabel;html=1;align=center;verticalAlign=middle;resizable=0;points=[];" connectable="0" vertex="1" parent="93WX8K2hh2bFkFXytc1J-31">
          <mxGeometry x="-0.8506" y="-1" relative="1" as="geometry">
            <mxPoint as="offset" />
          </mxGeometry>
        </mxCell>
        <mxCell id="2vV8LQsqpPuA8GsY8Z1z-4" style="edgeStyle=orthogonalEdgeStyle;rounded=0;orthogonalLoop=1;jettySize=auto;html=1;exitX=0.25;exitY=1;exitDx=0;exitDy=0;entryX=0.5;entryY=0;entryDx=0;entryDy=0;" edge="1" parent="1" source="93WX8K2hh2bFkFXytc1J-28" target="2vV8LQsqpPuA8GsY8Z1z-3">
          <mxGeometry relative="1" as="geometry" />
        </mxCell>
        <mxCell id="2vV8LQsqpPuA8GsY8Z1z-6" value="No" style="edgeLabel;html=1;align=center;verticalAlign=middle;resizable=0;points=[];" connectable="0" vertex="1" parent="2vV8LQsqpPuA8GsY8Z1z-4">
          <mxGeometry x="-0.0674" y="-1" relative="1" as="geometry">
            <mxPoint as="offset" />
          </mxGeometry>
        </mxCell>
        <mxCell id="93WX8K2hh2bFkFXytc1J-28" value="&lt;span style=&quot;text-align: start; background-color: initial;&quot;&gt;¿Estamos en SC&lt;/span&gt;&lt;span style=&quot;text-align: start; background-color: initial;&quot;&gt;?&lt;/span&gt;" style="rounded=1;whiteSpace=wrap;html=1;" vertex="1" parent="1">
          <mxGeometry x="-60" y="240" width="120" height="40" as="geometry" />
        </mxCell>
        <mxCell id="2vV8LQsqpPuA8GsY8Z1z-1" style="edgeStyle=orthogonalEdgeStyle;rounded=0;orthogonalLoop=1;jettySize=auto;html=1;exitX=0.5;exitY=1;exitDx=0;exitDy=0;dashed=1;" edge="1" parent="1" source="93WX8K2hh2bFkFXytc1J-33">
          <mxGeometry relative="1" as="geometry">
            <mxPoint x="-30" y="430" as="targetPoint" />
            <Array as="points">
              <mxPoint x="-30" y="400" />
              <mxPoint x="-30" y="400" />
            </Array>
          </mxGeometry>
        </mxCell>
        <mxCell id="93WX8K2hh2bFkFXytc1J-33" value="&lt;div style=&quot;text-align: start;&quot;&gt;Mandamos Ticket&lt;/div&gt;" style="rounded=1;whiteSpace=wrap;html=1;" vertex="1" parent="1">
          <mxGeometry x="-90" y="360" width="120" height="20" as="geometry" />
        </mxCell>
        <mxCell id="2vV8LQsqpPuA8GsY8Z1z-2" value="" style="rounded=0;whiteSpace=wrap;html=1;strokeColor=none;" vertex="1" parent="1">
          <mxGeometry x="-90" y="420" width="120" height="60" as="geometry" />
        </mxCell>
        <mxCell id="2vV8LQsqpPuA8GsY8Z1z-5" style="edgeStyle=orthogonalEdgeStyle;rounded=0;orthogonalLoop=1;jettySize=auto;html=1;exitX=0.5;exitY=1;exitDx=0;exitDy=0;entryX=0.5;entryY=0;entryDx=0;entryDy=0;" edge="1" parent="1" source="2vV8LQsqpPuA8GsY8Z1z-3" target="93WX8K2hh2bFkFXytc1J-33">
          <mxGeometry relative="1" as="geometry" />
        </mxCell>
        <mxCell id="2vV8LQsqpPuA8GsY8Z1z-3" value="&lt;div style=&quot;text-align: start; font-size: 9px;&quot;&gt;Bloqueamos Confirmaciones&lt;/div&gt;" style="rounded=1;whiteSpace=wrap;html=1;fontSize=9;" vertex="1" parent="1">
          <mxGeometry x="-90" y="320" width="120" height="20" as="geometry" />
        </mxCell>
        <mxCell id="AMMPERDZoFn_1c7m49-f-4" style="edgeStyle=orthogonalEdgeStyle;rounded=0;orthogonalLoop=1;jettySize=auto;html=1;exitX=0.5;exitY=1;exitDx=0;exitDy=0;entryX=0.5;entryY=0;entryDx=0;entryDy=0;" edge="1" parent="1" source="AMMPERDZoFn_1c7m49-f-1" target="AMMPERDZoFn_1c7m49-f-5">
          <mxGeometry relative="1" as="geometry">
            <mxPoint x="579.8620689655172" y="140" as="targetPoint" />
          </mxGeometry>
        </mxCell>
        <mxCell id="AMMPERDZoFn_1c7m49-f-6" value="Si" style="edgeLabel;html=1;align=center;verticalAlign=middle;resizable=0;points=[];" connectable="0" vertex="1" parent="AMMPERDZoFn_1c7m49-f-4">
          <mxGeometry x="-0.0857" y="1" relative="1" as="geometry">
            <mxPoint as="offset" />
          </mxGeometry>
        </mxCell>
        <mxCell id="AMMPERDZoFn_1c7m49-f-1" value="&lt;span style=&quot;text-align: start; background-color: initial;&quot;&gt;¿Mensaje recibido&lt;/span&gt;&lt;span style=&quot;text-align: start; background-color: initial;&quot;&gt;?&lt;/span&gt;" style="rounded=1;whiteSpace=wrap;html=1;" vertex="1" parent="1">
          <mxGeometry x="480" y="80" width="200" height="30" as="geometry" />
        </mxCell>
        <mxCell id="AMMPERDZoFn_1c7m49-f-2" style="edgeStyle=orthogonalEdgeStyle;rounded=0;orthogonalLoop=1;jettySize=auto;html=1;exitX=0.75;exitY=1;exitDx=0;exitDy=0;entryX=0.5;entryY=0;entryDx=0;entryDy=0;" edge="1" parent="1" source="AMMPERDZoFn_1c7m49-f-1" target="AMMPERDZoFn_1c7m49-f-1">
          <mxGeometry relative="1" as="geometry">
            <Array as="points">
              <mxPoint x="630" y="130" />
              <mxPoint x="820" y="130" />
              <mxPoint x="820" y="60" />
              <mxPoint x="580" y="60" />
            </Array>
          </mxGeometry>
        </mxCell>
        <mxCell id="AMMPERDZoFn_1c7m49-f-3" value="No" style="edgeLabel;html=1;align=center;verticalAlign=middle;resizable=0;points=[];" connectable="0" vertex="1" parent="AMMPERDZoFn_1c7m49-f-2">
          <mxGeometry x="-0.921" relative="1" as="geometry">
            <mxPoint as="offset" />
          </mxGeometry>
        </mxCell>
        <mxCell id="AMMPERDZoFn_1c7m49-f-7" style="edgeStyle=orthogonalEdgeStyle;rounded=0;orthogonalLoop=1;jettySize=auto;html=1;exitX=0.25;exitY=1;exitDx=0;exitDy=0;entryX=0.5;entryY=0;entryDx=0;entryDy=0;" edge="1" parent="1" source="AMMPERDZoFn_1c7m49-f-5" target="AMMPERDZoFn_1c7m49-f-9">
          <mxGeometry relative="1" as="geometry">
            <mxPoint x="530.2" y="220" as="targetPoint" />
            <Array as="points" />
          </mxGeometry>
        </mxCell>
        <mxCell id="AMMPERDZoFn_1c7m49-f-8" value="No" style="edgeLabel;html=1;align=center;verticalAlign=middle;resizable=0;points=[];" connectable="0" vertex="1" parent="AMMPERDZoFn_1c7m49-f-7">
          <mxGeometry x="-0.0489" y="-1" relative="1" as="geometry">
            <mxPoint as="offset" />
          </mxGeometry>
        </mxCell>
        <mxCell id="AMMPERDZoFn_1c7m49-f-20" style="edgeStyle=orthogonalEdgeStyle;rounded=0;orthogonalLoop=1;jettySize=auto;html=1;exitX=0.75;exitY=1;exitDx=0;exitDy=0;entryX=0.5;entryY=0;entryDx=0;entryDy=0;" edge="1" parent="1" source="AMMPERDZoFn_1c7m49-f-5" target="AMMPERDZoFn_1c7m49-f-19">
          <mxGeometry relative="1" as="geometry" />
        </mxCell>
        <mxCell id="AMMPERDZoFn_1c7m49-f-21" value="Si" style="edgeLabel;html=1;align=center;verticalAlign=middle;resizable=0;points=[];" connectable="0" vertex="1" parent="AMMPERDZoFn_1c7m49-f-20">
          <mxGeometry x="-0.4154" y="1" relative="1" as="geometry">
            <mxPoint as="offset" />
          </mxGeometry>
        </mxCell>
        <mxCell id="AMMPERDZoFn_1c7m49-f-5" value="&lt;span style=&quot;text-align: start; background-color: initial;&quot;&gt;¿Solicitud&lt;/span&gt;&lt;span style=&quot;text-align: start; background-color: initial;&quot;&gt;?&lt;/span&gt;" style="rounded=1;whiteSpace=wrap;html=1;" vertex="1" parent="1">
          <mxGeometry x="460" y="150" width="240" height="30" as="geometry" />
        </mxCell>
        <mxCell id="AMMPERDZoFn_1c7m49-f-12" style="edgeStyle=orthogonalEdgeStyle;rounded=0;orthogonalLoop=1;jettySize=auto;html=1;exitX=0.5;exitY=1;exitDx=0;exitDy=0;entryX=0.5;entryY=0;entryDx=0;entryDy=0;" edge="1" parent="1" source="AMMPERDZoFn_1c7m49-f-9" target="AMMPERDZoFn_1c7m49-f-11">
          <mxGeometry relative="1" as="geometry" />
        </mxCell>
        <mxCell id="AMMPERDZoFn_1c7m49-f-9" value="Confirmacion++" style="rounded=1;whiteSpace=wrap;html=1;" vertex="1" parent="1">
          <mxGeometry x="460" y="220" width="100" height="20" as="geometry" />
        </mxCell>
        <mxCell id="AMMPERDZoFn_1c7m49-f-13" style="edgeStyle=orthogonalEdgeStyle;rounded=0;orthogonalLoop=1;jettySize=auto;html=1;exitX=0.25;exitY=1;exitDx=0;exitDy=0;entryX=0;entryY=0.5;entryDx=0;entryDy=0;" edge="1" parent="1" source="AMMPERDZoFn_1c7m49-f-11" target="AMMPERDZoFn_1c7m49-f-1">
          <mxGeometry relative="1" as="geometry">
            <Array as="points">
              <mxPoint x="485" y="320" />
              <mxPoint x="440" y="320" />
              <mxPoint x="440" y="95" />
            </Array>
          </mxGeometry>
        </mxCell>
        <mxCell id="AMMPERDZoFn_1c7m49-f-14" value="No" style="edgeLabel;html=1;align=center;verticalAlign=middle;resizable=0;points=[];" connectable="0" vertex="1" parent="AMMPERDZoFn_1c7m49-f-13">
          <mxGeometry x="-0.9156" relative="1" as="geometry">
            <mxPoint y="5" as="offset" />
          </mxGeometry>
        </mxCell>
        <mxCell id="AMMPERDZoFn_1c7m49-f-16" style="edgeStyle=orthogonalEdgeStyle;rounded=0;orthogonalLoop=1;jettySize=auto;html=1;exitX=0.5;exitY=1;exitDx=0;exitDy=0;entryX=0.5;entryY=0;entryDx=0;entryDy=0;" edge="1" parent="1" source="AMMPERDZoFn_1c7m49-f-11" target="AMMPERDZoFn_1c7m49-f-15">
          <mxGeometry relative="1" as="geometry" />
        </mxCell>
        <mxCell id="AMMPERDZoFn_1c7m49-f-17" value="Si" style="edgeLabel;html=1;align=center;verticalAlign=middle;resizable=0;points=[];" connectable="0" vertex="1" parent="AMMPERDZoFn_1c7m49-f-16">
          <mxGeometry x="-0.024" relative="1" as="geometry">
            <mxPoint y="-4" as="offset" />
          </mxGeometry>
        </mxCell>
        <mxCell id="AMMPERDZoFn_1c7m49-f-11" value="&lt;span style=&quot;text-align: start; background-color: initial;&quot;&gt;¿Todas las confirmaciones&lt;/span&gt;&lt;span style=&quot;text-align: start; background-color: initial;&quot;&gt;?&lt;/span&gt;" style="rounded=1;whiteSpace=wrap;html=1;" vertex="1" parent="1">
          <mxGeometry x="460" y="270" width="100" height="30" as="geometry" />
        </mxCell>
        <mxCell id="AMMPERDZoFn_1c7m49-f-18" style="edgeStyle=orthogonalEdgeStyle;rounded=0;orthogonalLoop=1;jettySize=auto;html=1;exitX=0.5;exitY=1;exitDx=0;exitDy=0;entryX=0;entryY=0.5;entryDx=0;entryDy=0;" edge="1" parent="1" source="AMMPERDZoFn_1c7m49-f-15" target="AMMPERDZoFn_1c7m49-f-1">
          <mxGeometry relative="1" as="geometry">
            <Array as="points">
              <mxPoint x="510" y="390" />
              <mxPoint x="440" y="390" />
              <mxPoint x="440" y="95" />
            </Array>
          </mxGeometry>
        </mxCell>
        <mxCell id="AMMPERDZoFn_1c7m49-f-15" value="Proceso a SC" style="rounded=1;whiteSpace=wrap;html=1;" vertex="1" parent="1">
          <mxGeometry x="460" y="360" width="100" height="20" as="geometry" />
        </mxCell>
        <mxCell id="AMMPERDZoFn_1c7m49-f-23" style="edgeStyle=orthogonalEdgeStyle;rounded=0;orthogonalLoop=1;jettySize=auto;html=1;exitX=0.25;exitY=1;exitDx=0;exitDy=0;entryX=0.5;entryY=0;entryDx=0;entryDy=0;" edge="1" parent="1" source="AMMPERDZoFn_1c7m49-f-19" target="AMMPERDZoFn_1c7m49-f-22">
          <mxGeometry relative="1" as="geometry" />
        </mxCell>
        <mxCell id="AMMPERDZoFn_1c7m49-f-24" value="Si" style="edgeLabel;html=1;align=center;verticalAlign=middle;resizable=0;points=[];" connectable="0" vertex="1" parent="AMMPERDZoFn_1c7m49-f-23">
          <mxGeometry x="-0.19" relative="1" as="geometry">
            <mxPoint as="offset" />
          </mxGeometry>
        </mxCell>
        <mxCell id="AMMPERDZoFn_1c7m49-f-30" style="edgeStyle=orthogonalEdgeStyle;rounded=0;orthogonalLoop=1;jettySize=auto;html=1;exitX=0.75;exitY=1;exitDx=0;exitDy=0;entryX=0.5;entryY=0;entryDx=0;entryDy=0;" edge="1" parent="1" source="AMMPERDZoFn_1c7m49-f-19" target="AMMPERDZoFn_1c7m49-f-29">
          <mxGeometry relative="1" as="geometry" />
        </mxCell>
        <mxCell id="AMMPERDZoFn_1c7m49-f-31" value="No" style="edgeLabel;html=1;align=center;verticalAlign=middle;resizable=0;points=[];" connectable="0" vertex="1" parent="AMMPERDZoFn_1c7m49-f-30">
          <mxGeometry x="-0.7033" y="1" relative="1" as="geometry">
            <mxPoint as="offset" />
          </mxGeometry>
        </mxCell>
        <mxCell id="AMMPERDZoFn_1c7m49-f-19" value="&lt;span style=&quot;text-align: start; background-color: initial;&quot;&gt;¿Queremos SC&lt;/span&gt;&lt;span style=&quot;text-align: start; background-color: initial;&quot;&gt;?&lt;/span&gt;" style="rounded=1;whiteSpace=wrap;html=1;" vertex="1" parent="1">
          <mxGeometry x="600" y="220" width="130" height="20" as="geometry" />
        </mxCell>
        <mxCell id="AMMPERDZoFn_1c7m49-f-27" style="edgeStyle=orthogonalEdgeStyle;rounded=0;orthogonalLoop=1;jettySize=auto;html=1;exitX=0.25;exitY=1;exitDx=0;exitDy=0;entryX=0.5;entryY=0;entryDx=0;entryDy=0;" edge="1" parent="1" source="AMMPERDZoFn_1c7m49-f-22" target="AMMPERDZoFn_1c7m49-f-25">
          <mxGeometry relative="1" as="geometry" />
        </mxCell>
        <mxCell id="AMMPERDZoFn_1c7m49-f-28" value="Si" style="edgeLabel;html=1;align=center;verticalAlign=middle;resizable=0;points=[];" connectable="0" vertex="1" parent="AMMPERDZoFn_1c7m49-f-27">
          <mxGeometry x="-0.4585" y="2" relative="1" as="geometry">
            <mxPoint as="offset" />
          </mxGeometry>
        </mxCell>
        <mxCell id="AMMPERDZoFn_1c7m49-f-35" style="edgeStyle=orthogonalEdgeStyle;rounded=0;orthogonalLoop=1;jettySize=auto;html=1;exitX=0.75;exitY=1;exitDx=0;exitDy=0;entryX=0;entryY=0.5;entryDx=0;entryDy=0;" edge="1" parent="1" target="AMMPERDZoFn_1c7m49-f-34">
          <mxGeometry relative="1" as="geometry">
            <mxPoint x="662.5" y="300" as="sourcePoint" />
            <mxPoint x="667.5" y="355" as="targetPoint" />
            <Array as="points">
              <mxPoint x="662" y="355" />
            </Array>
          </mxGeometry>
        </mxCell>
        <mxCell id="AMMPERDZoFn_1c7m49-f-38" value="No" style="edgeLabel;html=1;align=center;verticalAlign=middle;resizable=0;points=[];" connectable="0" vertex="1" parent="AMMPERDZoFn_1c7m49-f-35">
          <mxGeometry x="-0.3839" relative="1" as="geometry">
            <mxPoint as="offset" />
          </mxGeometry>
        </mxCell>
        <mxCell id="AMMPERDZoFn_1c7m49-f-22" value="&lt;span style=&quot;text-align: start; background-color: initial;&quot;&gt;¿Estamos en SC&lt;/span&gt;&lt;span style=&quot;text-align: start; background-color: initial;&quot;&gt;?&lt;/span&gt;" style="rounded=1;whiteSpace=wrap;html=1;" vertex="1" parent="1">
          <mxGeometry x="580" y="280" width="100" height="20" as="geometry" />
        </mxCell>
        <mxCell id="AMMPERDZoFn_1c7m49-f-41" style="edgeStyle=orthogonalEdgeStyle;rounded=0;orthogonalLoop=1;jettySize=auto;html=1;exitX=0.5;exitY=1;exitDx=0;exitDy=0;entryX=0;entryY=0.5;entryDx=0;entryDy=0;" edge="1" parent="1" source="AMMPERDZoFn_1c7m49-f-25" target="AMMPERDZoFn_1c7m49-f-1">
          <mxGeometry relative="1" as="geometry">
            <Array as="points">
              <mxPoint x="605" y="440" />
              <mxPoint x="440" y="440" />
              <mxPoint x="440" y="95" />
            </Array>
          </mxGeometry>
        </mxCell>
        <mxCell id="AMMPERDZoFn_1c7m49-f-25" value="Guardamos solicitud" style="rounded=1;whiteSpace=wrap;html=1;" vertex="1" parent="1">
          <mxGeometry x="550" y="390" width="110" height="30" as="geometry" />
        </mxCell>
        <mxCell id="AMMPERDZoFn_1c7m49-f-32" style="edgeStyle=orthogonalEdgeStyle;rounded=0;orthogonalLoop=1;jettySize=auto;html=1;exitX=0.5;exitY=1;exitDx=0;exitDy=0;entryX=0.5;entryY=0;entryDx=0;entryDy=0;" edge="1" parent="1" source="AMMPERDZoFn_1c7m49-f-29" target="AMMPERDZoFn_1c7m49-f-1">
          <mxGeometry relative="1" as="geometry">
            <Array as="points">
              <mxPoint x="760" y="310" />
              <mxPoint x="820" y="310" />
              <mxPoint x="820" y="60" />
              <mxPoint x="580" y="60" />
            </Array>
          </mxGeometry>
        </mxCell>
        <mxCell id="AMMPERDZoFn_1c7m49-f-29" value="Confirmamos" style="rounded=1;whiteSpace=wrap;html=1;" vertex="1" parent="1">
          <mxGeometry x="710" y="280" width="100" height="20" as="geometry" />
        </mxCell>
        <mxCell id="AMMPERDZoFn_1c7m49-f-36" style="edgeStyle=orthogonalEdgeStyle;rounded=0;orthogonalLoop=1;jettySize=auto;html=1;exitX=0.5;exitY=0;exitDx=0;exitDy=0;entryX=0.25;entryY=1;entryDx=0;entryDy=0;" edge="1" parent="1" source="AMMPERDZoFn_1c7m49-f-34" target="AMMPERDZoFn_1c7m49-f-29">
          <mxGeometry relative="1" as="geometry" />
        </mxCell>
        <mxCell id="AMMPERDZoFn_1c7m49-f-37" value="Si" style="edgeLabel;html=1;align=center;verticalAlign=middle;resizable=0;points=[];" connectable="0" vertex="1" parent="AMMPERDZoFn_1c7m49-f-36">
          <mxGeometry x="-0.5446" y="2" relative="1" as="geometry">
            <mxPoint x="2" y="-11" as="offset" />
          </mxGeometry>
        </mxCell>
        <mxCell id="AMMPERDZoFn_1c7m49-f-39" style="edgeStyle=orthogonalEdgeStyle;rounded=0;orthogonalLoop=1;jettySize=auto;html=1;exitX=0.5;exitY=1;exitDx=0;exitDy=0;entryX=1;entryY=0.5;entryDx=0;entryDy=0;" edge="1" parent="1" source="AMMPERDZoFn_1c7m49-f-34" target="AMMPERDZoFn_1c7m49-f-25">
          <mxGeometry relative="1" as="geometry" />
        </mxCell>
        <mxCell id="AMMPERDZoFn_1c7m49-f-40" value="No" style="edgeLabel;html=1;align=center;verticalAlign=middle;resizable=0;points=[];" connectable="0" vertex="1" parent="AMMPERDZoFn_1c7m49-f-39">
          <mxGeometry x="-0.6921" y="1" relative="1" as="geometry">
            <mxPoint as="offset" />
          </mxGeometry>
        </mxCell>
        <mxCell id="AMMPERDZoFn_1c7m49-f-34" value="&lt;span style=&quot;text-align: start; background-color: initial;&quot;&gt;¿&lt;/span&gt;&lt;span style=&quot;text-align: start; background-color: initial;&quot;&gt;Es mas prioritario?&lt;/span&gt;" style="rounded=1;whiteSpace=wrap;html=1;" vertex="1" parent="1">
          <mxGeometry x="680" y="340" width="110" height="30" as="geometry" />
        </mxCell>
      </root>
    </mxGraphModel>
  </diagram>
  <diagram id="GIfrDMZAwWevfypeqRxH" name="Main">
    <mxGraphModel grid="1" page="1" gridSize="10" guides="1" tooltips="1" connect="1" arrows="1" fold="1" pageScale="1" pageWidth="827" pageHeight="1169" math="0" shadow="0">
      <root>
        <mxCell id="0" />
        <mxCell id="1" parent="0" />
        <mxCell id="4YJS5pROxXGWFD4-vq7K-14" style="edgeStyle=orthogonalEdgeStyle;rounded=0;orthogonalLoop=1;jettySize=auto;html=1;exitX=0.5;exitY=1;exitDx=0;exitDy=0;" edge="1" parent="1" source="4YJS5pROxXGWFD4-vq7K-13">
          <mxGeometry relative="1" as="geometry">
            <mxPoint x="140.20000000000005" y="200" as="targetPoint" />
          </mxGeometry>
        </mxCell>
        <mxCell id="4YJS5pROxXGWFD4-vq7K-13" value="&lt;div style=&quot;text-align: start;&quot;&gt;Creamos e inicializamos elementos&lt;/div&gt;" style="rounded=1;whiteSpace=wrap;html=1;" vertex="1" parent="1">
          <mxGeometry x="40" y="120" width="200" height="40" as="geometry" />
        </mxCell>
        <mxCell id="4YJS5pROxXGWFD4-vq7K-17" style="edgeStyle=orthogonalEdgeStyle;rounded=0;orthogonalLoop=1;jettySize=auto;html=1;exitX=0.5;exitY=1;exitDx=0;exitDy=0;entryX=0.5;entryY=0;entryDx=0;entryDy=0;" edge="1" parent="1" source="4YJS5pROxXGWFD4-vq7K-15" target="4YJS5pROxXGWFD4-vq7K-16">
          <mxGeometry relative="1" as="geometry" />
        </mxCell>
        <mxCell id="4YJS5pROxXGWFD4-vq7K-15" value="&lt;div style=&quot;text-align: start;&quot;&gt;Creación de proceso Receiver&lt;/div&gt;" style="rounded=1;whiteSpace=wrap;html=1;" vertex="1" parent="1">
          <mxGeometry x="40" y="200" width="200" height="40" as="geometry" />
        </mxCell>
        <mxCell id="4YJS5pROxXGWFD4-vq7K-18" style="edgeStyle=orthogonalEdgeStyle;rounded=0;orthogonalLoop=1;jettySize=auto;html=1;exitX=0.75;exitY=1;exitDx=0;exitDy=0;" edge="1" parent="1" source="4YJS5pROxXGWFD4-vq7K-16">
          <mxGeometry relative="1" as="geometry">
            <mxPoint x="140" y="280" as="targetPoint" />
            <Array as="points">
              <mxPoint x="190" y="360" />
              <mxPoint x="260" y="360" />
              <mxPoint x="260" y="260" />
              <mxPoint x="140" y="260" />
            </Array>
          </mxGeometry>
        </mxCell>
        <mxCell id="4YJS5pROxXGWFD4-vq7K-23" value="Nuevo Proceso" style="edgeLabel;html=1;align=center;verticalAlign=middle;resizable=0;points=[];" connectable="0" vertex="1" parent="4YJS5pROxXGWFD4-vq7K-18">
          <mxGeometry x="-0.8834" y="2" relative="1" as="geometry">
            <mxPoint as="offset" />
          </mxGeometry>
        </mxCell>
        <mxCell id="4YJS5pROxXGWFD4-vq7K-19" style="edgeStyle=orthogonalEdgeStyle;rounded=0;orthogonalLoop=1;jettySize=auto;html=1;" edge="1" parent="1" source="4YJS5pROxXGWFD4-vq7K-16">
          <mxGeometry relative="1" as="geometry">
            <mxPoint x="140" y="400" as="targetPoint" />
          </mxGeometry>
        </mxCell>
        <mxCell id="4YJS5pROxXGWFD4-vq7K-20" value="Cerrar programa" style="edgeLabel;html=1;align=center;verticalAlign=middle;resizable=0;points=[];" connectable="0" vertex="1" parent="4YJS5pROxXGWFD4-vq7K-19">
          <mxGeometry x="-0.1881" y="-1" relative="1" as="geometry">
            <mxPoint x="1" y="17" as="offset" />
          </mxGeometry>
        </mxCell>
        <mxCell id="4YJS5pROxXGWFD4-vq7K-16" value="&lt;div style=&quot;text-align: start;&quot;&gt;Menú de procesos del nodo&lt;/div&gt;" style="rounded=1;whiteSpace=wrap;html=1;" vertex="1" parent="1">
          <mxGeometry x="40" y="280" width="200" height="40" as="geometry" />
        </mxCell>
        <mxCell id="4YJS5pROxXGWFD4-vq7K-22" style="edgeStyle=orthogonalEdgeStyle;rounded=0;orthogonalLoop=1;jettySize=auto;html=1;exitX=0.5;exitY=1;exitDx=0;exitDy=0;entryX=0.5;entryY=0;entryDx=0;entryDy=0;" edge="1" parent="1" source="4YJS5pROxXGWFD4-vq7K-21" target="4YJS5pROxXGWFD4-vq7K-13">
          <mxGeometry relative="1" as="geometry" />
        </mxCell>
        <mxCell id="4YJS5pROxXGWFD4-vq7K-21" value="Inicio" style="ellipse;whiteSpace=wrap;html=1;" vertex="1" parent="1">
          <mxGeometry x="40" y="50" width="200" height="30" as="geometry" />
        </mxCell>
      </root>
    </mxGraphModel>
  </diagram>
  <diagram id="5268BCXvYE6JoHMpseP6" name="Consultas2">
    <mxGraphModel grid="1" page="1" gridSize="10" guides="1" tooltips="1" connect="1" arrows="1" fold="1" pageScale="1" pageWidth="827" pageHeight="1169" math="0" shadow="0">
      <root>
        <mxCell id="0" />
        <mxCell id="1" parent="0" />
        <mxCell id="_V0LSsUL-Cm8fRMl0vq_-1" value="&lt;div style=&quot;text-align: start; font-size: 12px;&quot;&gt;&lt;span style=&quot;font-size: 12px; background-color: initial;&quot;&gt;¿&lt;/span&gt;&lt;span style=&quot;background-color: initial; font-size: 12px;&quot;&gt;Hay otras consultas?&lt;/span&gt;&lt;/div&gt;" style="rounded=1;whiteSpace=wrap;html=1;fontSize=12;" vertex="1" parent="1">
          <mxGeometry x="260" y="260" width="250" height="30" as="geometry" />
        </mxCell>
        <mxCell id="_V0LSsUL-Cm8fRMl0vq_-2" style="edgeStyle=orthogonalEdgeStyle;rounded=0;orthogonalLoop=1;jettySize=auto;html=1;exitX=0.75;exitY=1;exitDx=0;exitDy=0;fontSize=12;entryX=0.5;entryY=0;entryDx=0;entryDy=0;" edge="1" parent="1" source="_V0LSsUL-Cm8fRMl0vq_-1" target="_V0LSsUL-Cm8fRMl0vq_-6">
          <mxGeometry relative="1" as="geometry">
            <mxPoint x="435" y="370" as="targetPoint" />
            <mxPoint x="430.03" y="330" as="sourcePoint" />
            <Array as="points">
              <mxPoint x="450" y="290" />
            </Array>
          </mxGeometry>
        </mxCell>
        <mxCell id="_V0LSsUL-Cm8fRMl0vq_-3" value="Si" style="edgeLabel;html=1;align=center;verticalAlign=middle;resizable=0;points=[];fontSize=12;" connectable="0" vertex="1" parent="_V0LSsUL-Cm8fRMl0vq_-2">
          <mxGeometry x="-0.2343" y="1" relative="1" as="geometry">
            <mxPoint x="-1" y="6" as="offset" />
          </mxGeometry>
        </mxCell>
        <mxCell id="_V0LSsUL-Cm8fRMl0vq_-4" style="edgeStyle=orthogonalEdgeStyle;rounded=0;orthogonalLoop=1;jettySize=auto;html=1;exitX=0.25;exitY=1;exitDx=0;exitDy=0;fontSize=12;entryX=0.5;entryY=0;entryDx=0;entryDy=0;" edge="1" parent="1" source="_V0LSsUL-Cm8fRMl0vq_-1" target="_V0LSsUL-Cm8fRMl0vq_-7">
          <mxGeometry relative="1" as="geometry">
            <mxPoint x="325" y="370" as="targetPoint" />
            <mxPoint x="330" y="290" as="sourcePoint" />
            <Array as="points">
              <mxPoint x="320" y="290" />
            </Array>
          </mxGeometry>
        </mxCell>
        <mxCell id="_V0LSsUL-Cm8fRMl0vq_-5" value="No" style="edgeLabel;html=1;align=center;verticalAlign=middle;resizable=0;points=[];fontSize=12;" connectable="0" vertex="1" parent="_V0LSsUL-Cm8fRMl0vq_-4">
          <mxGeometry x="-0.2343" y="1" relative="1" as="geometry">
            <mxPoint x="-1" y="6" as="offset" />
          </mxGeometry>
        </mxCell>
        <mxCell id="_V0LSsUL-Cm8fRMl0vq_-6" value="Envio Solicitudes" style="rounded=1;whiteSpace=wrap;html=1;fontSize=12;" vertex="1" parent="1">
          <mxGeometry x="400" y="330" width="100" height="30" as="geometry" />
        </mxCell>
        <mxCell id="_V0LSsUL-Cm8fRMl0vq_-7" value="&lt;span style=&quot;text-align: start; font-size: 12px;&quot;&gt;&lt;font style=&quot;font-size: 12px;&quot; face=&quot;Helvetica&quot;&gt;¿&lt;/font&gt;&lt;/span&gt;Puedo enviar solicitudes?" style="rounded=1;whiteSpace=wrap;html=1;fontSize=12;" vertex="1" parent="1">
          <mxGeometry x="270" y="330" width="100" height="30" as="geometry" />
        </mxCell>
        <mxCell id="_V0LSsUL-Cm8fRMl0vq_-8" style="edgeStyle=orthogonalEdgeStyle;rounded=0;orthogonalLoop=1;jettySize=auto;html=1;exitX=0.75;exitY=1;exitDx=0;exitDy=0;fontSize=12;entryX=0.25;entryY=0;entryDx=0;entryDy=0;" edge="1" parent="1" source="_V0LSsUL-Cm8fRMl0vq_-7" target="_V0LSsUL-Cm8fRMl0vq_-12">
          <mxGeometry relative="1" as="geometry">
            <mxPoint x="360" y="450" as="targetPoint" />
            <mxPoint x="360" y="380" as="sourcePoint" />
            <Array as="points">
              <mxPoint x="345" y="380" />
              <mxPoint x="375" y="380" />
            </Array>
          </mxGeometry>
        </mxCell>
        <mxCell id="_V0LSsUL-Cm8fRMl0vq_-9" value="Si" style="edgeLabel;html=1;align=center;verticalAlign=middle;resizable=0;points=[];fontSize=12;" connectable="0" vertex="1" parent="_V0LSsUL-Cm8fRMl0vq_-8">
          <mxGeometry x="-0.2343" y="1" relative="1" as="geometry">
            <mxPoint x="-7" y="1" as="offset" />
          </mxGeometry>
        </mxCell>
        <mxCell id="_V0LSsUL-Cm8fRMl0vq_-10" style="edgeStyle=orthogonalEdgeStyle;rounded=0;orthogonalLoop=1;jettySize=auto;html=1;exitX=0.5;exitY=1;exitDx=0;exitDy=0;fontSize=12;entryX=0.75;entryY=0;entryDx=0;entryDy=0;" edge="1" parent="1" source="_V0LSsUL-Cm8fRMl0vq_-6" target="_V0LSsUL-Cm8fRMl0vq_-12">
          <mxGeometry relative="1" as="geometry">
            <mxPoint x="440" y="450" as="targetPoint" />
            <mxPoint x="430" y="370" as="sourcePoint" />
            <Array as="points">
              <mxPoint x="440" y="380" />
              <mxPoint x="425" y="380" />
            </Array>
          </mxGeometry>
        </mxCell>
        <mxCell id="_V0LSsUL-Cm8fRMl0vq_-11" value="Si" style="edgeLabel;html=1;align=center;verticalAlign=middle;resizable=0;points=[];fontSize=12;" connectable="0" vertex="1" parent="_V0LSsUL-Cm8fRMl0vq_-10">
          <mxGeometry x="-0.2343" y="1" relative="1" as="geometry">
            <mxPoint x="1" y="5" as="offset" />
          </mxGeometry>
        </mxCell>
        <mxCell id="_V0LSsUL-Cm8fRMl0vq_-12" value="&lt;span style=&quot;text-align: start; font-size: 12px;&quot;&gt;&lt;font style=&quot;font-size: 12px;&quot; face=&quot;Helvetica&quot;&gt;¿Estan todas las confirmaciones&lt;/font&gt;&lt;/span&gt;?" style="rounded=1;whiteSpace=wrap;html=1;fontSize=12;" vertex="1" parent="1">
          <mxGeometry x="350" y="400" width="100" height="30" as="geometry" />
        </mxCell>
        <mxCell id="_V0LSsUL-Cm8fRMl0vq_-13" style="edgeStyle=orthogonalEdgeStyle;rounded=0;orthogonalLoop=1;jettySize=auto;html=1;exitX=0.75;exitY=1;exitDx=0;exitDy=0;entryX=1;entryY=0.5;entryDx=0;entryDy=0;" edge="1" parent="1" source="_V0LSsUL-Cm8fRMl0vq_-12" target="_V0LSsUL-Cm8fRMl0vq_-12">
          <mxGeometry relative="1" as="geometry">
            <Array as="points">
              <mxPoint x="425" y="450" />
              <mxPoint x="510" y="450" />
              <mxPoint x="510" y="415" />
            </Array>
          </mxGeometry>
        </mxCell>
        <mxCell id="_V0LSsUL-Cm8fRMl0vq_-14" value="No" style="edgeLabel;html=1;align=center;verticalAlign=middle;resizable=0;points=[];" connectable="0" vertex="1" parent="_V0LSsUL-Cm8fRMl0vq_-13">
          <mxGeometry x="-0.6248" relative="1" as="geometry">
            <mxPoint as="offset" />
          </mxGeometry>
        </mxCell>
        <mxCell id="_V0LSsUL-Cm8fRMl0vq_-15" style="edgeStyle=orthogonalEdgeStyle;rounded=0;orthogonalLoop=1;jettySize=auto;html=1;exitX=0.5;exitY=1;exitDx=0;exitDy=0;fontSize=12;entryX=0.5;entryY=0;entryDx=0;entryDy=0;" edge="1" parent="1" source="_V0LSsUL-Cm8fRMl0vq_-12" target="_V0LSsUL-Cm8fRMl0vq_-18">
          <mxGeometry relative="1" as="geometry">
            <mxPoint x="400" y="490" as="targetPoint" />
            <mxPoint x="384" y="460" as="sourcePoint" />
            <Array as="points" />
          </mxGeometry>
        </mxCell>
        <mxCell id="_V0LSsUL-Cm8fRMl0vq_-16" value="Si" style="edgeLabel;html=1;align=center;verticalAlign=middle;resizable=0;points=[];fontSize=12;" connectable="0" vertex="1" parent="_V0LSsUL-Cm8fRMl0vq_-15">
          <mxGeometry x="-0.2343" y="1" relative="1" as="geometry">
            <mxPoint x="-1" y="6" as="offset" />
          </mxGeometry>
        </mxCell>
        <mxCell id="_V0LSsUL-Cm8fRMl0vq_-17" style="edgeStyle=orthogonalEdgeStyle;rounded=0;orthogonalLoop=1;jettySize=auto;html=1;exitX=0.5;exitY=1;exitDx=0;exitDy=0;entryX=0.5;entryY=0;entryDx=0;entryDy=0;" edge="1" parent="1" source="_V0LSsUL-Cm8fRMl0vq_-18" target="_V0LSsUL-Cm8fRMl0vq_-23">
          <mxGeometry relative="1" as="geometry">
            <Array as="points">
              <mxPoint x="400" y="530" />
              <mxPoint x="550" y="530" />
              <mxPoint x="550" y="180" />
              <mxPoint x="385" y="180" />
            </Array>
          </mxGeometry>
        </mxCell>
        <mxCell id="_V0LSsUL-Cm8fRMl0vq_-18" value="SC" style="shape=hexagon;perimeter=hexagonPerimeter2;whiteSpace=wrap;html=1;fixedSize=1;fontSize=12;" vertex="1" parent="1">
          <mxGeometry x="337.5" y="480" width="125" height="30" as="geometry" />
        </mxCell>
        <mxCell id="_V0LSsUL-Cm8fRMl0vq_-19" style="edgeStyle=orthogonalEdgeStyle;rounded=0;orthogonalLoop=1;jettySize=auto;html=1;exitX=0.25;exitY=1;exitDx=0;exitDy=0;entryX=0;entryY=0.5;entryDx=0;entryDy=0;" edge="1" parent="1" source="_V0LSsUL-Cm8fRMl0vq_-7" target="_V0LSsUL-Cm8fRMl0vq_-7">
          <mxGeometry relative="1" as="geometry">
            <Array as="points">
              <mxPoint x="295" y="380" />
              <mxPoint x="230" y="380" />
              <mxPoint x="230" y="345" />
            </Array>
          </mxGeometry>
        </mxCell>
        <mxCell id="_V0LSsUL-Cm8fRMl0vq_-20" value="No" style="edgeLabel;html=1;align=center;verticalAlign=middle;resizable=0;points=[];" connectable="0" vertex="1" parent="_V0LSsUL-Cm8fRMl0vq_-19">
          <mxGeometry x="-0.7544" y="-1" relative="1" as="geometry">
            <mxPoint as="offset" />
          </mxGeometry>
        </mxCell>
        <mxCell id="_V0LSsUL-Cm8fRMl0vq_-21" style="edgeStyle=orthogonalEdgeStyle;rounded=0;orthogonalLoop=1;jettySize=auto;html=1;exitX=0.5;exitY=1;exitDx=0;exitDy=0;entryX=0.5;entryY=0;entryDx=0;entryDy=0;" edge="1" parent="1" source="_V0LSsUL-Cm8fRMl0vq_-23" target="_V0LSsUL-Cm8fRMl0vq_-1">
          <mxGeometry relative="1" as="geometry" />
        </mxCell>
        <mxCell id="_V0LSsUL-Cm8fRMl0vq_-22" value="Si" style="edgeLabel;html=1;align=center;verticalAlign=middle;resizable=0;points=[];" connectable="0" vertex="1" parent="_V0LSsUL-Cm8fRMl0vq_-21">
          <mxGeometry x="-0.3619" y="-1" relative="1" as="geometry">
            <mxPoint as="offset" />
          </mxGeometry>
        </mxCell>
        <mxCell id="_V0LSsUL-Cm8fRMl0vq_-23" value="&lt;span style=&quot;font-size: 12px; background-color: initial;&quot;&gt;¿&lt;/span&gt;Quiero entrar a la SC?" style="rounded=1;whiteSpace=wrap;html=1;fontSize=12;" vertex="1" parent="1">
          <mxGeometry x="260" y="200" width="250" height="30" as="geometry" />
        </mxCell>
        <mxCell id="_V0LSsUL-Cm8fRMl0vq_-24" style="edgeStyle=orthogonalEdgeStyle;rounded=0;orthogonalLoop=1;jettySize=auto;html=1;exitX=0.25;exitY=1;exitDx=0;exitDy=0;entryX=0;entryY=0.5;entryDx=0;entryDy=0;" edge="1" parent="1" source="_V0LSsUL-Cm8fRMl0vq_-23" target="_V0LSsUL-Cm8fRMl0vq_-23">
          <mxGeometry relative="1" as="geometry">
            <Array as="points">
              <mxPoint x="323" y="250" />
              <mxPoint x="230" y="250" />
              <mxPoint x="230" y="215" />
            </Array>
          </mxGeometry>
        </mxCell>
        <mxCell id="_V0LSsUL-Cm8fRMl0vq_-25" value="No" style="edgeLabel;html=1;align=center;verticalAlign=middle;resizable=0;points=[];" connectable="0" vertex="1" parent="_V0LSsUL-Cm8fRMl0vq_-24">
          <mxGeometry x="-0.86" relative="1" as="geometry">
            <mxPoint as="offset" />
          </mxGeometry>
        </mxCell>
      </root>
    </mxGraphModel>
  </diagram>
  <diagram id="oQkbW0NigEUb_ULFeOoU" name="A-R-P-Ad2">
    <mxGraphModel grid="1" page="1" gridSize="10" guides="1" tooltips="1" connect="1" arrows="1" fold="1" pageScale="1" pageWidth="827" pageHeight="1169" math="0" shadow="0">
      <root>
        <mxCell id="0" />
        <mxCell id="1" parent="0" />
        <mxCell id="TxWeWzRZ9vZmRr7NSGXt-1" style="edgeStyle=orthogonalEdgeStyle;rounded=0;orthogonalLoop=1;jettySize=auto;html=1;exitX=0.5;exitY=1;exitDx=0;exitDy=0;entryX=0.5;entryY=0;entryDx=0;entryDy=0;" edge="1" parent="1" source="TxWeWzRZ9vZmRr7NSGXt-3" target="TxWeWzRZ9vZmRr7NSGXt-8">
          <mxGeometry relative="1" as="geometry">
            <mxPoint x="384.97" y="230" as="targetPoint" />
          </mxGeometry>
        </mxCell>
        <mxCell id="TxWeWzRZ9vZmRr7NSGXt-2" value="Si" style="edgeLabel;html=1;align=center;verticalAlign=middle;resizable=0;points=[];" connectable="0" vertex="1" parent="TxWeWzRZ9vZmRr7NSGXt-1">
          <mxGeometry x="-0.3619" y="-1" relative="1" as="geometry">
            <mxPoint x="1" y="7" as="offset" />
          </mxGeometry>
        </mxCell>
        <mxCell id="TxWeWzRZ9vZmRr7NSGXt-3" value="&lt;span style=&quot;font-size: 12px; background-color: initial;&quot;&gt;¿&lt;/span&gt;Quiero entrar a la SC?" style="rounded=1;whiteSpace=wrap;html=1;fontSize=12;" vertex="1" parent="1">
          <mxGeometry x="259.97" y="170" width="250" height="30" as="geometry" />
        </mxCell>
        <mxCell id="TxWeWzRZ9vZmRr7NSGXt-4" style="edgeStyle=orthogonalEdgeStyle;rounded=0;orthogonalLoop=1;jettySize=auto;html=1;exitX=0.25;exitY=1;exitDx=0;exitDy=0;entryX=0;entryY=0.5;entryDx=0;entryDy=0;" edge="1" parent="1" source="TxWeWzRZ9vZmRr7NSGXt-3" target="TxWeWzRZ9vZmRr7NSGXt-3">
          <mxGeometry relative="1" as="geometry">
            <Array as="points">
              <mxPoint x="322.97" y="220" />
              <mxPoint x="229.97000000000003" y="220" />
              <mxPoint x="229.97000000000003" y="185" />
            </Array>
          </mxGeometry>
        </mxCell>
        <mxCell id="TxWeWzRZ9vZmRr7NSGXt-5" value="No" style="edgeLabel;html=1;align=center;verticalAlign=middle;resizable=0;points=[];" connectable="0" vertex="1" parent="TxWeWzRZ9vZmRr7NSGXt-4">
          <mxGeometry x="-0.86" relative="1" as="geometry">
            <mxPoint as="offset" />
          </mxGeometry>
        </mxCell>
        <mxCell id="TxWeWzRZ9vZmRr7NSGXt-6" style="edgeStyle=orthogonalEdgeStyle;rounded=0;orthogonalLoop=1;jettySize=auto;html=1;exitX=0.75;exitY=1;exitDx=0;exitDy=0;entryX=0.75;entryY=0;entryDx=0;entryDy=0;" edge="1" parent="1" source="TxWeWzRZ9vZmRr7NSGXt-8" target="TxWeWzRZ9vZmRr7NSGXt-17">
          <mxGeometry relative="1" as="geometry">
            <mxPoint x="447.5999999999999" y="370" as="targetPoint" />
          </mxGeometry>
        </mxCell>
        <mxCell id="TxWeWzRZ9vZmRr7NSGXt-7" value="No" style="edgeLabel;html=1;align=center;verticalAlign=middle;resizable=0;points=[];" connectable="0" vertex="1" parent="TxWeWzRZ9vZmRr7NSGXt-6">
          <mxGeometry x="-0.1094" relative="1" as="geometry">
            <mxPoint as="offset" />
          </mxGeometry>
        </mxCell>
        <mxCell id="TxWeWzRZ9vZmRr7NSGXt-8" value="&lt;div style=&quot;text-align: start; font-size: 12px;&quot;&gt;&lt;span style=&quot;font-size: 12px; background-color: initial;&quot;&gt;¿&lt;/span&gt;&lt;span style=&quot;background-color: initial; font-size: 12px;&quot;&gt;Hay otras consultas?&lt;/span&gt;&lt;/div&gt;" style="rounded=1;whiteSpace=wrap;html=1;fontSize=12;" vertex="1" parent="1">
          <mxGeometry x="259.97" y="240" width="250.03" height="30" as="geometry" />
        </mxCell>
        <mxCell id="TxWeWzRZ9vZmRr7NSGXt-9" style="edgeStyle=orthogonalEdgeStyle;rounded=0;orthogonalLoop=1;jettySize=auto;html=1;exitX=0.25;exitY=1;exitDx=0;exitDy=0;entryX=0.5;entryY=0;entryDx=0;entryDy=0;" edge="1" parent="1" source="TxWeWzRZ9vZmRr7NSGXt-8" target="TxWeWzRZ9vZmRr7NSGXt-15">
          <mxGeometry relative="1" as="geometry">
            <mxPoint x="322" y="330" as="targetPoint" />
            <Array as="points">
              <mxPoint x="322" y="290" />
              <mxPoint x="322" y="330" />
            </Array>
          </mxGeometry>
        </mxCell>
        <mxCell id="TxWeWzRZ9vZmRr7NSGXt-10" value="Si" style="edgeLabel;html=1;align=center;verticalAlign=middle;resizable=0;points=[];" connectable="0" vertex="1" parent="TxWeWzRZ9vZmRr7NSGXt-9">
          <mxGeometry x="-0.797" relative="1" as="geometry">
            <mxPoint y="7" as="offset" />
          </mxGeometry>
        </mxCell>
        <mxCell id="TxWeWzRZ9vZmRr7NSGXt-11" style="edgeStyle=orthogonalEdgeStyle;rounded=0;orthogonalLoop=1;jettySize=auto;html=1;exitX=0.25;exitY=1;exitDx=0;exitDy=0;entryX=0;entryY=0.5;entryDx=0;entryDy=0;" edge="1" parent="1" source="TxWeWzRZ9vZmRr7NSGXt-15" target="TxWeWzRZ9vZmRr7NSGXt-8">
          <mxGeometry relative="1" as="geometry">
            <Array as="points">
              <mxPoint x="290" y="350" />
              <mxPoint x="240" y="350" />
              <mxPoint x="240" y="255" />
            </Array>
          </mxGeometry>
        </mxCell>
        <mxCell id="TxWeWzRZ9vZmRr7NSGXt-12" value="No" style="edgeLabel;html=1;align=center;verticalAlign=middle;resizable=0;points=[];" connectable="0" vertex="1" parent="TxWeWzRZ9vZmRr7NSGXt-11">
          <mxGeometry x="-0.8747" y="1" relative="1" as="geometry">
            <mxPoint as="offset" />
          </mxGeometry>
        </mxCell>
        <mxCell id="TxWeWzRZ9vZmRr7NSGXt-13" style="edgeStyle=orthogonalEdgeStyle;rounded=0;orthogonalLoop=1;jettySize=auto;html=1;exitX=0.5;exitY=1;exitDx=0;exitDy=0;entryX=0.25;entryY=0;entryDx=0;entryDy=0;" edge="1" parent="1" source="TxWeWzRZ9vZmRr7NSGXt-15" target="TxWeWzRZ9vZmRr7NSGXt-17">
          <mxGeometry relative="1" as="geometry">
            <mxPoint x="322" y="360" as="targetPoint" />
            <Array as="points" />
          </mxGeometry>
        </mxCell>
        <mxCell id="TxWeWzRZ9vZmRr7NSGXt-14" value="Si" style="edgeLabel;html=1;align=center;verticalAlign=middle;resizable=0;points=[];" connectable="0" vertex="1" parent="TxWeWzRZ9vZmRr7NSGXt-13">
          <mxGeometry x="-0.0892" y="1" relative="1" as="geometry">
            <mxPoint x="-1" y="-3" as="offset" />
          </mxGeometry>
        </mxCell>
        <mxCell id="TxWeWzRZ9vZmRr7NSGXt-15" value="&lt;div style=&quot;text-align: start; font-size: 12px;&quot;&gt;&lt;span style=&quot;font-size: 12px; background-color: initial;&quot;&gt;¿Es menos prioritario&lt;/span&gt;&lt;span style=&quot;background-color: initial; font-size: 12px;&quot;&gt;?&lt;/span&gt;&lt;/div&gt;" style="rounded=1;whiteSpace=wrap;html=1;fontSize=12;" vertex="1" parent="1">
          <mxGeometry x="258" y="300" width="129" height="30" as="geometry" />
        </mxCell>
        <mxCell id="TxWeWzRZ9vZmRr7NSGXt-16" style="edgeStyle=orthogonalEdgeStyle;rounded=0;orthogonalLoop=1;jettySize=auto;html=1;exitX=0.5;exitY=1;exitDx=0;exitDy=0;entryX=0.5;entryY=0;entryDx=0;entryDy=0;" edge="1" parent="1" source="TxWeWzRZ9vZmRr7NSGXt-17" target="TxWeWzRZ9vZmRr7NSGXt-20">
          <mxGeometry relative="1" as="geometry" />
        </mxCell>
        <mxCell id="TxWeWzRZ9vZmRr7NSGXt-17" value="Envio solicitudes" style="rounded=1;whiteSpace=wrap;html=1;fontSize=12;" vertex="1" parent="1">
          <mxGeometry x="259.97" y="370" width="250.03" height="30" as="geometry" />
        </mxCell>
        <mxCell id="TxWeWzRZ9vZmRr7NSGXt-18" style="edgeStyle=orthogonalEdgeStyle;rounded=0;orthogonalLoop=1;jettySize=auto;html=1;exitX=0.5;exitY=1;exitDx=0;exitDy=0;entryX=0.5;entryY=0;entryDx=0;entryDy=0;" edge="1" parent="1" source="TxWeWzRZ9vZmRr7NSGXt-20" target="TxWeWzRZ9vZmRr7NSGXt-24">
          <mxGeometry relative="1" as="geometry">
            <mxPoint x="385.26571428571424" y="490" as="targetPoint" />
          </mxGeometry>
        </mxCell>
        <mxCell id="TxWeWzRZ9vZmRr7NSGXt-19" value="Si" style="edgeLabel;html=1;align=center;verticalAlign=middle;resizable=0;points=[];" connectable="0" vertex="1" parent="TxWeWzRZ9vZmRr7NSGXt-18">
          <mxGeometry x="-0.1203" y="-1" relative="1" as="geometry">
            <mxPoint x="1" y="-2" as="offset" />
          </mxGeometry>
        </mxCell>
        <mxCell id="TxWeWzRZ9vZmRr7NSGXt-20" value="&lt;span style=&quot;text-align: start; background-color: initial;&quot;&gt;¿&lt;/span&gt;&lt;span style=&quot;text-align: start; background-color: initial;&quot;&gt;Tengo todas las confirmaciones?&lt;/span&gt;" style="rounded=1;whiteSpace=wrap;html=1;fontSize=12;" vertex="1" parent="1">
          <mxGeometry x="319.98" y="430" width="130" height="30" as="geometry" />
        </mxCell>
        <mxCell id="TxWeWzRZ9vZmRr7NSGXt-21" style="edgeStyle=orthogonalEdgeStyle;rounded=0;orthogonalLoop=1;jettySize=auto;html=1;exitX=0.25;exitY=1;exitDx=0;exitDy=0;entryX=0;entryY=0.5;entryDx=0;entryDy=0;" edge="1" parent="1" source="TxWeWzRZ9vZmRr7NSGXt-20" target="TxWeWzRZ9vZmRr7NSGXt-20">
          <mxGeometry relative="1" as="geometry">
            <Array as="points">
              <mxPoint x="352" y="480" />
              <mxPoint x="270" y="480" />
              <mxPoint x="270" y="445" />
            </Array>
          </mxGeometry>
        </mxCell>
        <mxCell id="TxWeWzRZ9vZmRr7NSGXt-22" value="No" style="edgeLabel;html=1;align=center;verticalAlign=middle;resizable=0;points=[];" connectable="0" vertex="1" parent="TxWeWzRZ9vZmRr7NSGXt-21">
          <mxGeometry x="-0.8663" y="-2" relative="1" as="geometry">
            <mxPoint as="offset" />
          </mxGeometry>
        </mxCell>
        <mxCell id="TxWeWzRZ9vZmRr7NSGXt-23" style="edgeStyle=orthogonalEdgeStyle;rounded=0;orthogonalLoop=1;jettySize=auto;html=1;exitX=0.5;exitY=1;exitDx=0;exitDy=0;entryX=0.5;entryY=0;entryDx=0;entryDy=0;" edge="1" parent="1" source="TxWeWzRZ9vZmRr7NSGXt-24" target="TxWeWzRZ9vZmRr7NSGXt-3">
          <mxGeometry relative="1" as="geometry">
            <Array as="points">
              <mxPoint x="385" y="550" />
              <mxPoint x="530" y="550" />
              <mxPoint x="530" y="150" />
              <mxPoint x="385" y="150" />
            </Array>
          </mxGeometry>
        </mxCell>
        <mxCell id="TxWeWzRZ9vZmRr7NSGXt-24" value="SC" style="shape=hexagon;perimeter=hexagonPerimeter2;whiteSpace=wrap;html=1;fixedSize=1;fontSize=12;" vertex="1" parent="1">
          <mxGeometry x="319.98" y="500" width="130" height="30" as="geometry" />
        </mxCell>
      </root>
    </mxGraphModel>
  </diagram>
  <diagram id="kQK3LRlH4J4tRLw2glzL" name="Main2">
    <mxGraphModel grid="1" page="1" gridSize="10" guides="1" tooltips="1" connect="1" arrows="1" fold="1" pageScale="1" pageWidth="827" pageHeight="1169" math="0" shadow="0">
      <root>
        <mxCell id="0" />
        <mxCell id="1" parent="0" />
        <mxCell id="osmM0-FwUKHeitKevgtB-1" value="Inicio" style="ellipse;whiteSpace=wrap;html=1;" vertex="1" parent="1">
          <mxGeometry x="380" y="50" width="200" height="30" as="geometry" />
        </mxCell>
        <mxCell id="osmM0-FwUKHeitKevgtB-2" style="edgeStyle=orthogonalEdgeStyle;rounded=0;orthogonalLoop=1;jettySize=auto;html=1;exitX=0.5;exitY=1;exitDx=0;exitDy=0;" edge="1" parent="1" source="osmM0-FwUKHeitKevgtB-1">
          <mxGeometry relative="1" as="geometry">
            <mxPoint x="479.66" y="90" as="sourcePoint" />
            <mxPoint x="480" y="120" as="targetPoint" />
            <Array as="points" />
          </mxGeometry>
        </mxCell>
        <mxCell id="osmM0-FwUKHeitKevgtB-3" value="&lt;div style=&quot;text-align: start;&quot;&gt;Creamos e inicializamos elementos&lt;/div&gt;" style="rounded=1;whiteSpace=wrap;html=1;" vertex="1" parent="1">
          <mxGeometry x="380" y="120" width="200" height="30" as="geometry" />
        </mxCell>
        <mxCell id="osmM0-FwUKHeitKevgtB-4" value="&lt;div style=&quot;text-align: start;&quot;&gt;Creación de proceso Receiver&lt;/div&gt;" style="rounded=1;whiteSpace=wrap;html=1;" vertex="1" parent="1">
          <mxGeometry x="380" y="180" width="200" height="30" as="geometry" />
        </mxCell>
        <mxCell id="osmM0-FwUKHeitKevgtB-5" style="edgeStyle=orthogonalEdgeStyle;rounded=0;orthogonalLoop=1;jettySize=auto;html=1;exitX=0.5;exitY=1;exitDx=0;exitDy=0;entryX=0.5;entryY=0;entryDx=0;entryDy=0;" edge="1" parent="1" target="osmM0-FwUKHeitKevgtB-4">
          <mxGeometry relative="1" as="geometry">
            <mxPoint x="479.84000000000003" y="190" as="targetPoint" />
            <mxPoint x="479.64" y="150" as="sourcePoint" />
            <Array as="points">
              <mxPoint x="480" y="150" />
            </Array>
          </mxGeometry>
        </mxCell>
        <mxCell id="osmM0-FwUKHeitKevgtB-6" style="edgeStyle=orthogonalEdgeStyle;rounded=0;orthogonalLoop=1;jettySize=auto;html=1;exitX=0.25;exitY=1;exitDx=0;exitDy=0;entryX=0.5;entryY=0;entryDx=0;entryDy=0;" edge="1" parent="1" source="osmM0-FwUKHeitKevgtB-9" target="osmM0-FwUKHeitKevgtB-11">
          <mxGeometry relative="1" as="geometry">
            <mxPoint x="430.1428571428571" y="360" as="targetPoint" />
          </mxGeometry>
        </mxCell>
        <mxCell id="osmM0-FwUKHeitKevgtB-7" style="edgeStyle=orthogonalEdgeStyle;rounded=0;orthogonalLoop=1;jettySize=auto;html=1;exitX=0.75;exitY=1;exitDx=0;exitDy=0;entryX=0;entryY=0.5;entryDx=0;entryDy=0;" edge="1" parent="1" source="osmM0-FwUKHeitKevgtB-9" target="osmM0-FwUKHeitKevgtB-15">
          <mxGeometry relative="1" as="geometry" />
        </mxCell>
        <mxCell id="osmM0-FwUKHeitKevgtB-8" style="edgeStyle=orthogonalEdgeStyle;rounded=0;orthogonalLoop=1;jettySize=auto;html=1;exitX=0.75;exitY=1;exitDx=0;exitDy=0;entryX=0;entryY=0.5;entryDx=0;entryDy=0;" edge="1" parent="1" source="osmM0-FwUKHeitKevgtB-9" target="osmM0-FwUKHeitKevgtB-13">
          <mxGeometry relative="1" as="geometry" />
        </mxCell>
        <mxCell id="osmM0-FwUKHeitKevgtB-9" value="&lt;div style=&quot;text-align: start;&quot;&gt;Menú de procesos del nodo&lt;/div&gt;" style="rounded=1;whiteSpace=wrap;html=1;" vertex="1" parent="1">
          <mxGeometry x="380" y="260" width="200" height="30" as="geometry" />
        </mxCell>
        <mxCell id="osmM0-FwUKHeitKevgtB-10" style="edgeStyle=orthogonalEdgeStyle;rounded=0;orthogonalLoop=1;jettySize=auto;html=1;exitX=0.5;exitY=1;exitDx=0;exitDy=0;entryX=0.5;entryY=0;entryDx=0;entryDy=0;" edge="1" parent="1" source="osmM0-FwUKHeitKevgtB-4" target="osmM0-FwUKHeitKevgtB-9">
          <mxGeometry relative="1" as="geometry">
            <mxPoint x="470" y="330" as="sourcePoint" />
            <mxPoint x="470" y="370" as="targetPoint" />
            <Array as="points">
              <mxPoint x="480" y="240" />
              <mxPoint x="480" y="240" />
            </Array>
          </mxGeometry>
        </mxCell>
        <mxCell id="osmM0-FwUKHeitKevgtB-11" value="Cerrar programa" style="rounded=1;whiteSpace=wrap;html=1;" vertex="1" parent="1">
          <mxGeometry x="380" y="370" width="100" height="30" as="geometry" />
        </mxCell>
        <mxCell id="osmM0-FwUKHeitKevgtB-12" style="edgeStyle=orthogonalEdgeStyle;rounded=0;orthogonalLoop=1;jettySize=auto;html=1;exitX=1;exitY=0.5;exitDx=0;exitDy=0;entryX=1;entryY=0.5;entryDx=0;entryDy=0;" edge="1" parent="1" source="osmM0-FwUKHeitKevgtB-13" target="osmM0-FwUKHeitKevgtB-9">
          <mxGeometry relative="1" as="geometry">
            <mxPoint x="580" y="280" as="targetPoint" />
          </mxGeometry>
        </mxCell>
        <mxCell id="osmM0-FwUKHeitKevgtB-13" value="Lanzar N procesos" style="rounded=1;whiteSpace=wrap;html=1;" vertex="1" parent="1">
          <mxGeometry x="560" y="370" width="120" height="30" as="geometry" />
        </mxCell>
        <mxCell id="osmM0-FwUKHeitKevgtB-14" style="edgeStyle=orthogonalEdgeStyle;rounded=0;orthogonalLoop=1;jettySize=auto;html=1;exitX=1;exitY=0.5;exitDx=0;exitDy=0;entryX=1;entryY=0.5;entryDx=0;entryDy=0;" edge="1" parent="1" source="osmM0-FwUKHeitKevgtB-15" target="osmM0-FwUKHeitKevgtB-9">
          <mxGeometry relative="1" as="geometry" />
        </mxCell>
        <mxCell id="osmM0-FwUKHeitKevgtB-15" value="Lanzar 1 proceso" style="rounded=1;whiteSpace=wrap;html=1;" vertex="1" parent="1">
          <mxGeometry x="560" y="320" width="120" height="30" as="geometry" />
        </mxCell>
      </root>
    </mxGraphModel>
  </diagram>
  <diagram id="y4Iv_G7FtYxDYpSiCvU7" name="Receiver2">
    <mxGraphModel grid="1" page="1" gridSize="10" guides="1" tooltips="1" connect="1" arrows="1" fold="1" pageScale="1" pageWidth="827" pageHeight="1169" math="0" shadow="0">
      <root>
        <mxCell id="0" />
        <mxCell id="1" parent="0" />
        <mxCell id="Dk80XoXi-5TmvU70Lt9H-1" style="edgeStyle=orthogonalEdgeStyle;rounded=0;orthogonalLoop=1;jettySize=auto;html=1;exitX=0.5;exitY=1;exitDx=0;exitDy=0;entryX=0.5;entryY=0;entryDx=0;entryDy=0;" edge="1" parent="1" source="Dk80XoXi-5TmvU70Lt9H-3" target="Dk80XoXi-5TmvU70Lt9H-10">
          <mxGeometry relative="1" as="geometry">
            <mxPoint x="349.8620689655172" y="285" as="targetPoint" />
          </mxGeometry>
        </mxCell>
        <mxCell id="Dk80XoXi-5TmvU70Lt9H-2" value="Si" style="edgeLabel;html=1;align=center;verticalAlign=middle;resizable=0;points=[];" connectable="0" vertex="1" parent="Dk80XoXi-5TmvU70Lt9H-1">
          <mxGeometry x="-0.0857" y="1" relative="1" as="geometry">
            <mxPoint as="offset" />
          </mxGeometry>
        </mxCell>
        <mxCell id="Dk80XoXi-5TmvU70Lt9H-3" value="&lt;span style=&quot;text-align: start; background-color: initial;&quot;&gt;¿Mensaje recibido&lt;/span&gt;&lt;span style=&quot;text-align: start; background-color: initial;&quot;&gt;?&lt;/span&gt;" style="rounded=1;whiteSpace=wrap;html=1;" vertex="1" parent="1">
          <mxGeometry x="250" y="225" width="200" height="30" as="geometry" />
        </mxCell>
        <mxCell id="Dk80XoXi-5TmvU70Lt9H-4" style="edgeStyle=orthogonalEdgeStyle;rounded=0;orthogonalLoop=1;jettySize=auto;html=1;exitX=0.75;exitY=1;exitDx=0;exitDy=0;entryX=0.5;entryY=0;entryDx=0;entryDy=0;" edge="1" parent="1" source="Dk80XoXi-5TmvU70Lt9H-3" target="Dk80XoXi-5TmvU70Lt9H-3">
          <mxGeometry relative="1" as="geometry">
            <Array as="points">
              <mxPoint x="400" y="275" />
              <mxPoint x="590" y="275" />
              <mxPoint x="590" y="205" />
              <mxPoint x="350" y="205" />
            </Array>
          </mxGeometry>
        </mxCell>
        <mxCell id="Dk80XoXi-5TmvU70Lt9H-5" value="No" style="edgeLabel;html=1;align=center;verticalAlign=middle;resizable=0;points=[];" connectable="0" vertex="1" parent="Dk80XoXi-5TmvU70Lt9H-4">
          <mxGeometry x="-0.921" relative="1" as="geometry">
            <mxPoint as="offset" />
          </mxGeometry>
        </mxCell>
        <mxCell id="Dk80XoXi-5TmvU70Lt9H-6" style="edgeStyle=orthogonalEdgeStyle;rounded=0;orthogonalLoop=1;jettySize=auto;html=1;exitX=0.25;exitY=1;exitDx=0;exitDy=0;entryX=0.5;entryY=0;entryDx=0;entryDy=0;" edge="1" parent="1" source="Dk80XoXi-5TmvU70Lt9H-10" target="Dk80XoXi-5TmvU70Lt9H-12">
          <mxGeometry relative="1" as="geometry">
            <mxPoint x="300.20000000000005" y="365" as="targetPoint" />
            <Array as="points" />
          </mxGeometry>
        </mxCell>
        <mxCell id="Dk80XoXi-5TmvU70Lt9H-7" value="No" style="edgeLabel;html=1;align=center;verticalAlign=middle;resizable=0;points=[];" connectable="0" vertex="1" parent="Dk80XoXi-5TmvU70Lt9H-6">
          <mxGeometry x="-0.0489" y="-1" relative="1" as="geometry">
            <mxPoint as="offset" />
          </mxGeometry>
        </mxCell>
        <mxCell id="Dk80XoXi-5TmvU70Lt9H-8" style="edgeStyle=orthogonalEdgeStyle;rounded=0;orthogonalLoop=1;jettySize=auto;html=1;exitX=0.75;exitY=1;exitDx=0;exitDy=0;entryX=0.5;entryY=0;entryDx=0;entryDy=0;" edge="1" parent="1" source="Dk80XoXi-5TmvU70Lt9H-10" target="Dk80XoXi-5TmvU70Lt9H-24">
          <mxGeometry relative="1" as="geometry" />
        </mxCell>
        <mxCell id="Dk80XoXi-5TmvU70Lt9H-9" value="Si" style="edgeLabel;html=1;align=center;verticalAlign=middle;resizable=0;points=[];" connectable="0" vertex="1" parent="Dk80XoXi-5TmvU70Lt9H-8">
          <mxGeometry x="-0.4154" y="1" relative="1" as="geometry">
            <mxPoint as="offset" />
          </mxGeometry>
        </mxCell>
        <mxCell id="Dk80XoXi-5TmvU70Lt9H-10" value="&lt;span style=&quot;text-align: start; background-color: initial;&quot;&gt;¿Solicitud&lt;/span&gt;&lt;span style=&quot;text-align: start; background-color: initial;&quot;&gt;?&lt;/span&gt;" style="rounded=1;whiteSpace=wrap;html=1;" vertex="1" parent="1">
          <mxGeometry x="230" y="295" width="240" height="30" as="geometry" />
        </mxCell>
        <mxCell id="Dk80XoXi-5TmvU70Lt9H-11" style="edgeStyle=orthogonalEdgeStyle;rounded=0;orthogonalLoop=1;jettySize=auto;html=1;exitX=0.5;exitY=1;exitDx=0;exitDy=0;entryX=0.5;entryY=0;entryDx=0;entryDy=0;" edge="1" parent="1" source="Dk80XoXi-5TmvU70Lt9H-12" target="Dk80XoXi-5TmvU70Lt9H-17">
          <mxGeometry relative="1" as="geometry" />
        </mxCell>
        <mxCell id="Dk80XoXi-5TmvU70Lt9H-12" value="Confirmacion++" style="rounded=1;whiteSpace=wrap;html=1;" vertex="1" parent="1">
          <mxGeometry x="230" y="365" width="100" height="20" as="geometry" />
        </mxCell>
        <mxCell id="Dk80XoXi-5TmvU70Lt9H-13" style="edgeStyle=orthogonalEdgeStyle;rounded=0;orthogonalLoop=1;jettySize=auto;html=1;exitX=0.25;exitY=1;exitDx=0;exitDy=0;entryX=0;entryY=0.5;entryDx=0;entryDy=0;" edge="1" parent="1" source="Dk80XoXi-5TmvU70Lt9H-17" target="Dk80XoXi-5TmvU70Lt9H-3">
          <mxGeometry relative="1" as="geometry">
            <Array as="points">
              <mxPoint x="255" y="465" />
              <mxPoint x="210" y="465" />
              <mxPoint x="210" y="240" />
            </Array>
          </mxGeometry>
        </mxCell>
        <mxCell id="Dk80XoXi-5TmvU70Lt9H-14" value="No" style="edgeLabel;html=1;align=center;verticalAlign=middle;resizable=0;points=[];" connectable="0" vertex="1" parent="Dk80XoXi-5TmvU70Lt9H-13">
          <mxGeometry x="-0.9156" relative="1" as="geometry">
            <mxPoint y="5" as="offset" />
          </mxGeometry>
        </mxCell>
        <mxCell id="Dk80XoXi-5TmvU70Lt9H-15" style="edgeStyle=orthogonalEdgeStyle;rounded=0;orthogonalLoop=1;jettySize=auto;html=1;exitX=0.5;exitY=1;exitDx=0;exitDy=0;entryX=0.5;entryY=0;entryDx=0;entryDy=0;" edge="1" parent="1" source="Dk80XoXi-5TmvU70Lt9H-17" target="Dk80XoXi-5TmvU70Lt9H-19">
          <mxGeometry relative="1" as="geometry" />
        </mxCell>
        <mxCell id="Dk80XoXi-5TmvU70Lt9H-16" value="Si" style="edgeLabel;html=1;align=center;verticalAlign=middle;resizable=0;points=[];" connectable="0" vertex="1" parent="Dk80XoXi-5TmvU70Lt9H-15">
          <mxGeometry x="-0.024" relative="1" as="geometry">
            <mxPoint y="-4" as="offset" />
          </mxGeometry>
        </mxCell>
        <mxCell id="Dk80XoXi-5TmvU70Lt9H-17" value="&lt;span style=&quot;text-align: start; background-color: initial;&quot;&gt;¿Todas las confirmaciones&lt;/span&gt;&lt;span style=&quot;text-align: start; background-color: initial;&quot;&gt;?&lt;/span&gt;" style="rounded=1;whiteSpace=wrap;html=1;" vertex="1" parent="1">
          <mxGeometry x="230" y="415" width="100" height="30" as="geometry" />
        </mxCell>
        <mxCell id="Dk80XoXi-5TmvU70Lt9H-18" style="edgeStyle=orthogonalEdgeStyle;rounded=0;orthogonalLoop=1;jettySize=auto;html=1;exitX=0.5;exitY=1;exitDx=0;exitDy=0;entryX=0;entryY=0.5;entryDx=0;entryDy=0;" edge="1" parent="1" source="Dk80XoXi-5TmvU70Lt9H-19" target="Dk80XoXi-5TmvU70Lt9H-3">
          <mxGeometry relative="1" as="geometry">
            <Array as="points">
              <mxPoint x="280" y="535" />
              <mxPoint x="210" y="535" />
              <mxPoint x="210" y="240" />
            </Array>
          </mxGeometry>
        </mxCell>
        <mxCell id="Dk80XoXi-5TmvU70Lt9H-19" value="Proceso a SC" style="rounded=1;whiteSpace=wrap;html=1;" vertex="1" parent="1">
          <mxGeometry x="230" y="505" width="100" height="20" as="geometry" />
        </mxCell>
        <mxCell id="Dk80XoXi-5TmvU70Lt9H-20" style="edgeStyle=orthogonalEdgeStyle;rounded=0;orthogonalLoop=1;jettySize=auto;html=1;exitX=0.25;exitY=1;exitDx=0;exitDy=0;entryX=0.5;entryY=0;entryDx=0;entryDy=0;" edge="1" parent="1" source="Dk80XoXi-5TmvU70Lt9H-24" target="Dk80XoXi-5TmvU70Lt9H-29">
          <mxGeometry relative="1" as="geometry" />
        </mxCell>
        <mxCell id="Dk80XoXi-5TmvU70Lt9H-21" value="Si" style="edgeLabel;html=1;align=center;verticalAlign=middle;resizable=0;points=[];" connectable="0" vertex="1" parent="Dk80XoXi-5TmvU70Lt9H-20">
          <mxGeometry x="-0.19" relative="1" as="geometry">
            <mxPoint as="offset" />
          </mxGeometry>
        </mxCell>
        <mxCell id="Dk80XoXi-5TmvU70Lt9H-22" style="edgeStyle=orthogonalEdgeStyle;rounded=0;orthogonalLoop=1;jettySize=auto;html=1;exitX=0.75;exitY=1;exitDx=0;exitDy=0;entryX=0.5;entryY=0;entryDx=0;entryDy=0;" edge="1" parent="1" source="Dk80XoXi-5TmvU70Lt9H-24" target="Dk80XoXi-5TmvU70Lt9H-33">
          <mxGeometry relative="1" as="geometry" />
        </mxCell>
        <mxCell id="Dk80XoXi-5TmvU70Lt9H-23" value="No" style="edgeLabel;html=1;align=center;verticalAlign=middle;resizable=0;points=[];" connectable="0" vertex="1" parent="Dk80XoXi-5TmvU70Lt9H-22">
          <mxGeometry x="-0.7033" y="1" relative="1" as="geometry">
            <mxPoint as="offset" />
          </mxGeometry>
        </mxCell>
        <mxCell id="Dk80XoXi-5TmvU70Lt9H-24" value="&lt;span style=&quot;text-align: start; background-color: initial;&quot;&gt;¿Queremos SC&lt;/span&gt;&lt;span style=&quot;text-align: start; background-color: initial;&quot;&gt;?&lt;/span&gt;" style="rounded=1;whiteSpace=wrap;html=1;" vertex="1" parent="1">
          <mxGeometry x="370" y="365" width="130" height="20" as="geometry" />
        </mxCell>
        <mxCell id="Dk80XoXi-5TmvU70Lt9H-25" style="edgeStyle=orthogonalEdgeStyle;rounded=0;orthogonalLoop=1;jettySize=auto;html=1;exitX=0.25;exitY=1;exitDx=0;exitDy=0;entryX=0.5;entryY=0;entryDx=0;entryDy=0;" edge="1" parent="1" source="Dk80XoXi-5TmvU70Lt9H-29" target="Dk80XoXi-5TmvU70Lt9H-31">
          <mxGeometry relative="1" as="geometry" />
        </mxCell>
        <mxCell id="Dk80XoXi-5TmvU70Lt9H-26" value="Si" style="edgeLabel;html=1;align=center;verticalAlign=middle;resizable=0;points=[];" connectable="0" vertex="1" parent="Dk80XoXi-5TmvU70Lt9H-25">
          <mxGeometry x="-0.4585" y="2" relative="1" as="geometry">
            <mxPoint as="offset" />
          </mxGeometry>
        </mxCell>
        <mxCell id="Dk80XoXi-5TmvU70Lt9H-27" style="edgeStyle=orthogonalEdgeStyle;rounded=0;orthogonalLoop=1;jettySize=auto;html=1;exitX=0.75;exitY=1;exitDx=0;exitDy=0;entryX=0;entryY=0.5;entryDx=0;entryDy=0;" edge="1" parent="1" target="Dk80XoXi-5TmvU70Lt9H-38">
          <mxGeometry relative="1" as="geometry">
            <mxPoint x="432.5" y="445" as="sourcePoint" />
            <mxPoint x="437.5" y="500" as="targetPoint" />
            <Array as="points">
              <mxPoint x="432" y="500" />
            </Array>
          </mxGeometry>
        </mxCell>
        <mxCell id="Dk80XoXi-5TmvU70Lt9H-28" value="No" style="edgeLabel;html=1;align=center;verticalAlign=middle;resizable=0;points=[];" connectable="0" vertex="1" parent="Dk80XoXi-5TmvU70Lt9H-27">
          <mxGeometry x="-0.3839" relative="1" as="geometry">
            <mxPoint as="offset" />
          </mxGeometry>
        </mxCell>
        <mxCell id="Dk80XoXi-5TmvU70Lt9H-29" value="&lt;span style=&quot;text-align: start; background-color: initial;&quot;&gt;¿Estamos en SC&lt;/span&gt;&lt;span style=&quot;text-align: start; background-color: initial;&quot;&gt;?&lt;/span&gt;" style="rounded=1;whiteSpace=wrap;html=1;" vertex="1" parent="1">
          <mxGeometry x="350" y="425" width="100" height="20" as="geometry" />
        </mxCell>
        <mxCell id="Dk80XoXi-5TmvU70Lt9H-30" style="edgeStyle=orthogonalEdgeStyle;rounded=0;orthogonalLoop=1;jettySize=auto;html=1;exitX=0.5;exitY=1;exitDx=0;exitDy=0;entryX=0;entryY=0.5;entryDx=0;entryDy=0;" edge="1" parent="1" source="Dk80XoXi-5TmvU70Lt9H-31" target="Dk80XoXi-5TmvU70Lt9H-3">
          <mxGeometry relative="1" as="geometry">
            <Array as="points">
              <mxPoint x="375" y="585" />
              <mxPoint x="210" y="585" />
              <mxPoint x="210" y="240" />
            </Array>
          </mxGeometry>
        </mxCell>
        <mxCell id="Dk80XoXi-5TmvU70Lt9H-31" value="Guardamos solicitud" style="rounded=1;whiteSpace=wrap;html=1;" vertex="1" parent="1">
          <mxGeometry x="320" y="535" width="110" height="30" as="geometry" />
        </mxCell>
        <mxCell id="Dk80XoXi-5TmvU70Lt9H-32" style="edgeStyle=orthogonalEdgeStyle;rounded=0;orthogonalLoop=1;jettySize=auto;html=1;exitX=0.5;exitY=1;exitDx=0;exitDy=0;entryX=0.5;entryY=0;entryDx=0;entryDy=0;" edge="1" parent="1" source="Dk80XoXi-5TmvU70Lt9H-33" target="Dk80XoXi-5TmvU70Lt9H-3">
          <mxGeometry relative="1" as="geometry">
            <Array as="points">
              <mxPoint x="530" y="455" />
              <mxPoint x="590" y="455" />
              <mxPoint x="590" y="205" />
              <mxPoint x="350" y="205" />
            </Array>
          </mxGeometry>
        </mxCell>
        <mxCell id="Dk80XoXi-5TmvU70Lt9H-33" value="Confirmamos" style="rounded=1;whiteSpace=wrap;html=1;" vertex="1" parent="1">
          <mxGeometry x="480" y="425" width="100" height="20" as="geometry" />
        </mxCell>
        <mxCell id="Dk80XoXi-5TmvU70Lt9H-34" style="edgeStyle=orthogonalEdgeStyle;rounded=0;orthogonalLoop=1;jettySize=auto;html=1;exitX=0.5;exitY=0;exitDx=0;exitDy=0;entryX=0.25;entryY=1;entryDx=0;entryDy=0;" edge="1" parent="1" source="Dk80XoXi-5TmvU70Lt9H-38" target="Dk80XoXi-5TmvU70Lt9H-33">
          <mxGeometry relative="1" as="geometry" />
        </mxCell>
        <mxCell id="Dk80XoXi-5TmvU70Lt9H-35" value="Si" style="edgeLabel;html=1;align=center;verticalAlign=middle;resizable=0;points=[];" connectable="0" vertex="1" parent="Dk80XoXi-5TmvU70Lt9H-34">
          <mxGeometry x="-0.5446" y="2" relative="1" as="geometry">
            <mxPoint x="2" y="-11" as="offset" />
          </mxGeometry>
        </mxCell>
        <mxCell id="Dk80XoXi-5TmvU70Lt9H-36" style="edgeStyle=orthogonalEdgeStyle;rounded=0;orthogonalLoop=1;jettySize=auto;html=1;exitX=0.5;exitY=1;exitDx=0;exitDy=0;entryX=1;entryY=0.5;entryDx=0;entryDy=0;" edge="1" parent="1" source="Dk80XoXi-5TmvU70Lt9H-38" target="Dk80XoXi-5TmvU70Lt9H-31">
          <mxGeometry relative="1" as="geometry" />
        </mxCell>
        <mxCell id="Dk80XoXi-5TmvU70Lt9H-37" value="No" style="edgeLabel;html=1;align=center;verticalAlign=middle;resizable=0;points=[];" connectable="0" vertex="1" parent="Dk80XoXi-5TmvU70Lt9H-36">
          <mxGeometry x="-0.6921" y="1" relative="1" as="geometry">
            <mxPoint as="offset" />
          </mxGeometry>
        </mxCell>
        <mxCell id="Dk80XoXi-5TmvU70Lt9H-38" value="&lt;span style=&quot;text-align: start; background-color: initial;&quot;&gt;¿&lt;/span&gt;&lt;span style=&quot;text-align: start; background-color: initial;&quot;&gt;Es mas prioritario?&lt;/span&gt;" style="rounded=1;whiteSpace=wrap;html=1;" vertex="1" parent="1">
          <mxGeometry x="450" y="485" width="110" height="30" as="geometry" />
        </mxCell>
      </root>
    </mxGraphModel>
  </diagram>
</mxfile>
